<svg width="24" height="24" viewBox="0 0 24 24" fill="none" xmlns="http://www.w3.org/2000/svg">
    <path d="M12 1C5.38322 1 3.22505e-05 5.67481 3.22505e-05 11.4211C3.22505e-05 13.4296 0.658431 15.3753 1.90723 17.0577C1.67083 19.5807 1.03723 21.4538 0.117232 22.3412C-0.00436774 22.4585 -0.0347677 22.638 0.0420322 22.7862C0.110032 22.9186 0.250032 23 0.400032 23C0.418432 23 0.436832 22.9988 0.455632 22.9961C0.617631 22.9741 4.38083 22.4515 7.10282 20.9355C8.64842 21.5372 10.2948 21.8421 12 21.8421C18.6168 21.8421 24 17.1673 24 11.4211C24 5.67481 18.6168 1 12 1ZM6.40002 12.9649C5.51762 12.9649 4.80003 12.2725 4.80003 11.4211C4.80003 10.5696 5.51762 9.87719 6.40002 9.87719C7.28242 9.87719 8.00002 10.5696 8.00002 11.4211C8.00002 12.2725 7.28242 12.9649 6.40002 12.9649ZM12 12.9649C11.1176 12.9649 10.4 12.2725 10.4 11.4211C10.4 10.5696 11.1176 9.87719 12 9.87719C12.8824 9.87719 13.6 10.5696 13.6 11.4211C13.6 12.2725 12.8824 12.9649 12 12.9649ZM17.6 12.9649C16.7176 12.9649 16 12.2725 16 11.4211C16 10.5696 16.7176 9.87719 17.6 9.87719C18.4824 9.87719 19.2 10.5696 19.2 11.4211C19.2 12.2725 18.4824 12.9649 17.6 12.9649Z" fill="#26BD49"/>
</svg>
