<svg width="16" height="16" viewBox="0 0 16 16" fill="none" xmlns="http://www.w3.org/2000/svg">
    <g clip-path="url(#clip0_1_510)">
        <path d="M12.2212 6.44873L13.0885 5.09778C13.7588 4.08936 13.8203 2.80017 13.2487 1.73254C12.6766 0.663818 11.5684 0 10.3561 0H5.64392C4.43164 0 3.32336 0.663818 2.75134 1.73242C2.17969 2.80017 2.24109 4.08936 2.91138 5.0979L3.77881 6.44873C2.58398 7.59583 1.90625 9.17529 1.90625 10.8438C1.90625 12.8892 2.9259 14.7875 4.63379 15.9218L4.75171 16H11.2483L11.3662 15.9218C13.0741 14.7875 14.0938 12.8892 14.0938 10.8438C14.0938 9.17529 13.416 7.59583 12.2212 6.44873ZM10.962 15.0625H5.03796C3.66125 14.0948 2.84375 12.5282 2.84375 10.8438C2.84375 9.31458 3.5166 7.87354 4.6897 6.89014L5.0061 6.625L3.69385 4.5813C3.2135 3.8606 3.16907 2.93848 3.57788 2.17493C3.98645 1.41162 4.77808 0.9375 5.64392 0.9375H10.3561C11.2219 0.9375 12.0135 1.41162 12.4221 2.17505C12.8309 2.93848 12.7865 3.8606 12.3062 4.5813L10.9939 6.625L11.3103 6.89014C12.4834 7.87354 13.1562 9.31458 13.1562 10.8438C13.1562 12.5282 12.3387 14.0948 10.962 15.0625Z" fill="#7E7B86"/>
        <path d="M11.5956 2.61731C11.3468 2.15247 10.8834 1.875 10.3561 1.875H5.64394C5.11659 1.875 4.65321 2.15247 4.40407 2.61792C4.15627 3.08215 4.18153 3.62012 4.47145 4.05774L5.81996 6.15405L6.17494 6.01965C6.75722 5.79919 7.37123 5.6875 8.00002 5.6875C8.6288 5.6875 9.24281 5.79919 9.82509 6.01965L10.1799 6.15405L11.5285 4.05774C11.8185 3.62012 11.8438 3.08215 11.5956 2.61731ZM10.7461 3.54126L9.79543 5.01892C9.21608 4.84033 8.61391 4.75 8.00002 4.75C7.38612 4.75 6.78395 4.84033 6.20461 5.01892L5.25392 3.54126C5.12538 3.34851 5.17067 3.17273 5.23085 3.05981C5.29128 2.94702 5.412 2.8125 5.64394 2.8125H10.3561C10.588 2.8125 10.7088 2.94702 10.7688 3.05933C10.8294 3.17273 10.8746 3.34851 10.7461 3.54126Z" fill="#7E7B86"/>
    </g>
    <defs>
        <clipPath id="clip0_1_510">
            <rect width="16" height="16" fill="white"/>
        </clipPath>
    </defs>
</svg>
