<svg width="19" height="16" viewBox="0 0 19 16" fill="none" xmlns="http://www.w3.org/2000/svg">
    <path d="M10.0825 4.85301H1.37891C1.14581 4.85301 0.922253 4.76041 0.757426 4.59558C0.592599 4.43076 0.5 4.2072 0.5 3.9741C0.5 3.741 0.592599 3.51745 0.757426 3.35262C0.922253 3.1878 1.14581 3.0952 1.37891 3.0952H10.0836C10.3167 3.0952 10.5402 3.1878 10.7051 3.35262C10.8699 3.51745 10.9625 3.741 10.9625 3.9741C10.9625 4.2072 10.8699 4.43076 10.7051 4.59558C10.5402 4.76041 10.3167 4.85301 10.0836 4.85301H10.0825Z" fill="white"/>
    <path d="M17.6211 4.85301H15.421C15.1879 4.85301 14.9644 4.76041 14.7995 4.59558C14.6347 4.43076 14.5421 4.2072 14.5421 3.9741C14.5421 3.741 14.6347 3.51745 14.7995 3.35262C14.9644 3.1878 15.1879 3.0952 15.421 3.0952H17.6211C17.8542 3.0952 18.0778 3.1878 18.2426 3.35262C18.4074 3.51745 18.5 3.741 18.5 3.9741C18.5 4.2072 18.4074 4.43076 18.2426 4.59558C18.0778 4.76041 17.8542 4.85301 17.6211 4.85301Z" fill="white"/>
    <path d="M17.6211 12.9699H8.91748C8.68438 12.9699 8.46083 12.8773 8.296 12.7125C8.13117 12.5476 8.03857 12.3241 8.03857 12.091C8.03857 11.8579 8.13117 11.6343 8.296 11.4695C8.46083 11.3047 8.68438 11.2121 8.91748 11.2121H17.6211C17.8542 11.2121 18.0778 11.3047 18.2426 11.4695C18.4074 11.6343 18.5 11.8579 18.5 12.091C18.5 12.3241 18.4074 12.5476 18.2426 12.7125C18.0778 12.8773 17.8542 12.9699 17.6211 12.9699Z" fill="white"/>
    <path d="M3.57898 12.9699H1.37891C1.14581 12.9699 0.922253 12.8773 0.757426 12.7125C0.592599 12.5476 0.5 12.3241 0.5 12.091C0.5 11.8579 0.592599 11.6343 0.757426 11.4695C0.922253 11.3047 1.14581 11.2121 1.37891 11.2121H3.57898C3.81208 11.2121 4.03564 11.3047 4.20046 11.4695C4.36529 11.6343 4.45789 11.8579 4.45789 12.091C4.45789 12.3241 4.36529 12.5476 4.20046 12.7125C4.03564 12.8773 3.81208 12.9699 3.57898 12.9699Z" fill="white"/>
    <path d="M6.24838 15.5743C5.54657 15.5743 4.86051 15.3663 4.27694 14.9764C3.69338 14.5866 3.23853 14.0324 2.96991 13.3841C2.70129 12.7357 2.63097 12.0222 2.76785 11.3339C2.90472 10.6456 3.24264 10.0133 3.73886 9.51702C4.23509 9.02075 4.86734 8.68277 5.55566 8.54582C6.24397 8.40888 6.95744 8.47913 7.60583 8.74769C8.25422 9.01624 8.80841 9.47104 9.19833 10.0546C9.58823 10.6381 9.79635 11.3241 9.79635 12.0259C9.7957 12.9668 9.4217 13.8688 8.75647 14.5341C8.09125 15.1994 7.18919 15.5735 6.24838 15.5743ZM6.24838 10.2358C5.89422 10.2357 5.548 10.3407 5.2535 10.5374C4.95899 10.7341 4.72945 11.0137 4.59388 11.3409C4.45832 11.6681 4.42283 12.0282 4.49191 12.3755C4.56098 12.7229 4.73152 13.0419 4.98195 13.2924C5.23238 13.5428 5.55145 13.7133 5.8988 13.7824C6.24616 13.8515 6.6062 13.816 6.93339 13.6804C7.26058 13.5449 7.54021 13.3153 7.73693 13.0208C7.93365 12.7263 8.03861 12.3801 8.03854 12.0259C8.03779 11.5514 7.84895 11.0965 7.51339 10.7609C7.17783 10.4254 6.72293 10.2365 6.24838 10.2358Z" fill="white"/>
    <path d="M12.7516 7.52242C12.0498 7.52242 11.3637 7.31432 10.7802 6.92442C10.1967 6.53453 9.74191 5.98036 9.47335 5.33199C9.20478 4.68362 9.13452 3.97017 9.27143 3.28186C9.40834 2.59355 9.74629 1.9613 10.2425 1.46506C10.7388 0.96882 11.371 0.630876 12.0593 0.493963C12.7476 0.35705 13.4611 0.427319 14.1095 0.695883C14.7578 0.964447 15.312 1.41924 15.7019 2.00276C16.0918 2.58628 16.2999 3.27231 16.2999 3.9741C16.2992 4.91498 15.9252 5.81713 15.2599 6.48242C14.5946 7.14772 13.6924 7.52177 12.7516 7.52242ZM12.7516 2.18395C12.3974 2.18395 12.0512 2.28897 11.7568 2.48573C11.4623 2.68249 11.2328 2.96215 11.0973 3.28934C10.9618 3.61653 10.9264 3.97656 10.9955 4.32389C11.0646 4.67123 11.2352 4.99027 11.4856 5.24066C11.7361 5.49105 12.0551 5.66155 12.4025 5.7306C12.7498 5.79965 13.1098 5.76414 13.437 5.62857C13.7642 5.49299 14.0438 5.26345 14.2405 4.96895C14.4372 4.67446 14.5421 4.32825 14.5421 3.9741C14.5413 3.49949 14.3524 3.04454 14.0168 2.70897C13.6812 2.3734 13.2262 2.1846 12.7516 2.18395Z" fill="white"/>
</svg>
