<svg width="32" height="32" viewBox="0 0 32 32" fill="none" xmlns="http://www.w3.org/2000/svg">
    <path d="M18.1334 26.6667H13.8667" stroke="white" stroke-width="2" stroke-linecap="round" stroke-linejoin="round"/>
    <path fill-rule="evenodd" clip-rule="evenodd" d="M22.6666 13.3761V13.3334V13.3334C22.6666 9.65208 19.6813 6.66675 16 6.66675V6.66675C12.3186 6.66675 9.33329 9.65208 9.33329 13.3334V13.3334V13.3761V16.6721C9.33329 17.1041 9.08929 17.4974 8.70396 17.6907L8.03329 18.0254C7.19596 18.4454 6.66663 19.3014 6.66663 20.2374V20.2374C6.66663 21.6027 7.77329 22.7094 9.13863 22.7094H22.8613C24.2266 22.7094 25.3333 21.6027 25.3333 20.2374V20.2374C25.3333 19.3014 24.804 18.4454 23.9666 18.0267L23.296 17.6921C22.9106 17.4974 22.6666 17.1041 22.6666 16.6721V13.3761Z" stroke="white" stroke-width="2" stroke-linecap="round" stroke-linejoin="round"/>
</svg>
