<svg width="24" height="24" viewBox="0 0 24 24" fill="none" xmlns="http://www.w3.org/2000/svg">
    <path fill-rule="evenodd" clip-rule="evenodd" d="M10.5 8H13.5V10.5C13.5 10.7761 13.2761 11 13 11H11C10.7239 11 10.5 10.7761 10.5 10.5V8Z" stroke="#D0D5DD" stroke-width="1.5" stroke-linecap="round" stroke-linejoin="round"/>
    <rect x="7.5" y="8" width="9" height="8" rx="2" stroke="#D0D5DD" stroke-width="1.5" stroke-linecap="round" stroke-linejoin="round"/>
    <path d="M18.25 4.69336L19.5 5.94336L21.5 3.94336" stroke="#D0D5DD" stroke-width="1.5" stroke-linecap="round" stroke-linejoin="round"/>
    <path d="M21.0588 9.206C21.3469 10.1095 21.4957 11.0517 21.5 12C21.5 17.2467 17.2467 21.5 12 21.5C6.75329 21.5 2.5 17.2467 2.5 12C2.5 6.75329 6.75329 2.5 12 2.5C12.9484 2.50428 13.8905 2.65307 14.7941 2.94122" stroke="#D0D5DD" stroke-width="1.5" stroke-linecap="round" stroke-linejoin="round"/>
    <path d="M21.0588 9.206C21.3469 10.1095 21.4957 11.0517 21.5 12C21.5 17.2467 17.2467 21.5 12 21.5C6.75329 21.5 2.5 17.2467 2.5 12C2.5 6.75329 6.75329 2.5 12 2.5C12.9484 2.50428 13.8905 2.65307 14.7941 2.94122" stroke="#D0D5DD" stroke-width="1.5" stroke-linecap="round" stroke-linejoin="round"/>
</svg>