<svg width="20" height="20" viewBox="0 0 20 20" fill="none" xmlns="http://www.w3.org/2000/svg">
<g id="camera-01">
<path id="Icon (Stroke)" fill-rule="evenodd" clip-rule="evenodd" d="M7.96475 0.833987C7.9712 0.833989 7.97771 0.833991 7.98427 0.833991L12.0352 0.833987C12.1271 0.833965 12.2069 0.833946 12.2832 0.838563C13.2472 0.896947 14.0914 1.5054 14.4516 2.40149C14.4801 2.47237 14.5054 2.54817 14.5344 2.63531L14.5406 2.6538C14.5792 2.76978 14.5876 2.79376 14.5947 2.81149C14.7148 3.11019 14.9962 3.31301 15.3175 3.33247C15.3364 3.33361 15.3647 3.33399 15.4953 3.33399C15.5111 3.33399 15.5266 3.33399 15.5419 3.33398C15.8043 3.33393 15.997 3.33389 16.162 3.35023C17.743 3.50688 18.9938 4.75762 19.1504 6.33867C19.1668 6.50356 19.1667 6.68859 19.1667 6.93845C19.1667 6.95264 19.1667 6.96705 19.1667 6.98168V13.5351C19.1667 14.2059 19.1667 14.7595 19.1298 15.2105C19.0916 15.6789 19.0094 16.1095 18.8033 16.514C18.4838 17.1412 17.9738 17.6511 17.3466 17.9707C16.9422 18.1768 16.5116 18.2589 16.0432 18.2972C15.5922 18.334 15.0386 18.334 14.3678 18.334H5.63222C4.96142 18.334 4.40779 18.334 3.9568 18.2972C3.48839 18.2589 3.0578 18.1768 2.65336 17.9707C2.02615 17.6511 1.51621 17.1412 1.19664 16.514C0.99056 16.1095 0.908423 15.6789 0.870152 15.2105C0.833305 14.7595 0.833313 14.2059 0.833324 13.5351L0.833324 6.98168C0.833324 6.96705 0.833321 6.95265 0.833319 6.93845C0.833267 6.6886 0.833229 6.50356 0.849566 6.33867C1.00621 4.75762 2.25696 3.50688 3.838 3.35023C4.00293 3.33389 4.19572 3.33393 4.4581 3.33398C4.47337 3.33399 4.48889 3.33399 4.50464 3.33399C4.63532 3.33399 4.6636 3.33361 4.68244 3.33247C5.00378 3.31301 5.28517 3.11019 5.40525 2.81149C5.41238 2.79377 5.42076 2.76978 5.45942 2.6538C5.4615 2.64757 5.46356 2.64139 5.4656 2.63527C5.49461 2.54815 5.51986 2.47236 5.54834 2.40149C5.90859 1.50539 6.75276 0.896947 7.71679 0.838563C7.79303 0.833946 7.87292 0.833965 7.96475 0.833987ZM7.98427 2.50066C7.86202 2.50066 7.83662 2.50103 7.81755 2.50218C7.4962 2.52164 7.21481 2.72446 7.09473 3.02316C7.0876 3.04088 7.07922 3.06487 7.04056 3.18085C7.03848 3.18708 7.03642 3.19326 7.03439 3.19938C7.00537 3.2865 6.98013 3.36229 6.95164 3.43316C6.5914 4.32925 5.74722 4.9377 4.78319 4.99609C4.7069 5.00071 4.62326 5.00069 4.52602 5.00066C4.51897 5.00066 4.51184 5.00066 4.50464 5.00066C4.17565 5.00066 4.07368 5.00171 4.00233 5.00878C3.21181 5.0871 2.58644 5.71247 2.50811 6.503C2.50101 6.57463 2.49999 6.6698 2.49999 6.98168V13.5007C2.49999 14.2145 2.50064 14.6997 2.53128 15.0748C2.56113 15.4401 2.61524 15.627 2.68165 15.7573C2.84144 16.0709 3.0964 16.3259 3.41001 16.4857C3.54034 16.5521 3.72718 16.6062 4.09252 16.636C4.4676 16.6667 4.95284 16.6673 5.66666 16.6673H14.3333C15.0471 16.6673 15.5324 16.6667 15.9075 16.636C16.2728 16.6062 16.4596 16.5521 16.59 16.4857C16.9036 16.3259 17.1585 16.0709 17.3183 15.7573C17.3847 15.627 17.4388 15.4401 17.4687 15.0748C17.4993 14.6997 17.5 14.2145 17.5 13.5007V6.98168C17.5 6.6698 17.499 6.57463 17.4919 6.503C17.4135 5.71247 16.7882 5.0871 15.9977 5.00878C15.9263 5.00171 15.8243 5.00066 15.4953 5.00066L15.474 5.00066C15.3767 5.00069 15.2931 5.00071 15.2168 4.99609C14.2528 4.9377 13.4086 4.32925 13.0483 3.43316C13.0199 3.36228 12.9946 3.28647 12.9656 3.19933L12.9594 3.18085C12.9208 3.06487 12.9124 3.04088 12.9053 3.02316C12.7852 2.72446 12.5038 2.52164 12.1824 2.50218C12.1634 2.50103 12.138 2.50066 12.0157 2.50066H7.98427ZM9.99999 7.91732C8.61928 7.91732 7.49999 9.03661 7.49999 10.4173C7.49999 11.798 8.61928 12.9173 9.99999 12.9173C11.3807 12.9173 12.5 11.798 12.5 10.4173C12.5 9.03661 11.3807 7.91732 9.99999 7.91732ZM5.83332 10.4173C5.83332 8.11614 7.6988 6.25066 9.99999 6.25066C12.3012 6.25066 14.1667 8.11614 14.1667 10.4173C14.1667 12.7185 12.3012 14.584 9.99999 14.584C7.6988 14.584 5.83332 12.7185 5.83332 10.4173Z" fill="#9AA6AC"/>
</g>
</svg>
