<svg width="24" height="24" viewBox="0 0 24 24" fill="none" xmlns="http://www.w3.org/2000/svg">
    <path d="M19.0752 18.6836L16.9502 14.4336L14.8252 18.6836" stroke="#007AFF" stroke-width="1.5" stroke-linecap="round" stroke-linejoin="round"/>
    <path d="M15.2002 17.9336H18.7002" stroke="#007AFF" stroke-width="1.5" stroke-linecap="round" stroke-linejoin="round"/>
    <path fill-rule="evenodd" clip-rule="evenodd" d="M16.9501 22.0004V22.0004C14.1611 22.0004 11.9001 19.7394 11.9001 16.9504V16.9504C11.9001 14.1614 14.1611 11.9004 16.9501 11.9004V11.9004C19.7391 11.9004 22.0001 14.1614 22.0001 16.9504V16.9504C22.0001 19.7394 19.7391 22.0004 16.9501 22.0004Z" stroke="#007AFF" stroke-width="1.5" stroke-linecap="round" stroke-linejoin="round"/>
    <path fill-rule="evenodd" clip-rule="evenodd" d="M5.1001 2.09961H9.0001C10.6571 2.09961 12.0001 3.44261 12.0001 5.09961V8.99961C12.0001 10.6566 10.6571 11.9996 9.0001 11.9996H5.1001C3.4431 11.9996 2.1001 10.6566 2.1001 8.99961V5.09961C2.1001 3.44261 3.4431 2.09961 5.1001 2.09961Z" stroke="#007AFF" stroke-width="1.5" stroke-linecap="round" stroke-linejoin="round"/>
    <path d="M9.07003 5.92969H5.03003" stroke="#007AFF" stroke-width="1.5" stroke-linecap="round" stroke-linejoin="round"/>
    <path d="M7.05005 5.24984V5.92984" stroke="#007AFF" stroke-width="1.5" stroke-linecap="round" stroke-linejoin="round"/>
    <path d="M8.06215 5.92383C8.06215 7.66383 6.70215 9.07383 5.02515 9.07383" stroke="#007AFF" stroke-width="1.5" stroke-linecap="round" stroke-linejoin="round"/>
    <path d="M9.07513 9.07422C8.34713 9.07422 7.69613 8.68622 7.23413 8.07422" stroke="#007AFF" stroke-width="1.5" stroke-linecap="round" stroke-linejoin="round"/>
    <path d="M14.5649 4.91602H16.0309C18.0549 4.91602 19.6949 6.55702 19.6949 8.58002" stroke="#007AFF" stroke-width="1.5" stroke-linecap="round" stroke-linejoin="round"/>
    <path d="M14.5649 4.91602L15.6639 6.01502" stroke="#007AFF" stroke-width="1.5" stroke-linecap="round" stroke-linejoin="round"/>
    <path d="M15.6639 3.81641L14.5649 4.91541" stroke="#007AFF" stroke-width="1.5" stroke-linecap="round" stroke-linejoin="round"/>
    <path d="M9.43493 19.0839H7.96893C5.94493 19.0839 4.30493 17.4429 4.30493 15.4199" stroke="#007AFF" stroke-width="1.5" stroke-linecap="round" stroke-linejoin="round"/>
    <path d="M9.43494 19.0834L8.33594 17.9844" stroke="#007AFF" stroke-width="1.5" stroke-linecap="round" stroke-linejoin="round"/>
    <path d="M8.33594 20.1849L9.43494 19.0859" stroke="#007AFF" stroke-width="1.5" stroke-linecap="round" stroke-linejoin="round"/>
</svg>