<svg width="24" height="21" viewBox="0 0 24 21" fill="none" xmlns="http://www.w3.org/2000/svg">
    <path d="M20.3696 4.95652H18.0739L16.8065 3.1087C16.3283 2.41576 15.4913 2 14.6304 2H9.36957C8.5087 2 7.67174 2.41576 7.19348 3.1087L5.92609 4.95652H3.63043C2.17174 4.95652 1 6.08832 1 7.49728V16.4592C1 17.8682 2.17174 19 3.63043 19H20.3696C21.8283 19 23 17.8682 23 16.4592V7.49728C23 6.08832 21.8283 4.95652 20.3696 4.95652ZM12 16.9212C8.72391 16.9212 6.06957 14.3573 6.06957 11.1929C6.06957 8.02853 8.72391 5.48777 12 5.48777C15.2761 5.48777 17.9304 8.05163 17.9304 11.216C17.9304 14.3573 15.2761 16.9212 12 16.9212ZM20.0348 8.53668C20.0109 8.53668 19.987 8.53668 19.9391 8.53668H18.9826C18.5522 8.51359 18.2174 8.16712 18.2413 7.75136C18.2652 7.3587 18.5761 7.05842 18.9826 7.03533H19.9391C20.3696 7.01223 20.7283 7.3356 20.7522 7.75136C20.7761 8.16712 20.4652 8.51359 20.0348 8.53668Z" fill="#003399"/>
    <path d="M12.1 8C10.3928 8 9 9.41522 9 11.15C9 12.8848 10.3928 14.2772 12.1 14.2772C13.8072 14.2772 15.2 12.862 15.2 11.1272C15.2 9.39239 13.8072 8 12.1 8Z" fill="#003399"/>
</svg>
