<svg width="24" height="24" viewBox="0 0 24 24" fill="none" xmlns="http://www.w3.org/2000/svg">
    <path d="M12 2C5.93462 2 1.00003 6.24982 1.00003 11.4737C1.00003 13.2996 1.60356 15.0684 2.74829 16.5979C2.53159 18.8916 1.95079 20.5944 1.10746 21.4011C0.995996 21.5077 0.96813 21.6709 1.03853 21.8056C1.10086 21.926 1.2292 22 1.3667 22C1.38356 22 1.40043 21.9989 1.41766 21.9965C1.56616 21.9765 5.01576 21.5014 7.51092 20.1232C8.92772 20.6702 10.4369 20.9474 12 20.9474C18.0654 20.9474 23 16.6975 23 11.4737C23 6.24982 18.0654 2 12 2ZM6.86669 12.8772C6.05782 12.8772 5.40002 12.2477 5.40002 11.4737C5.40002 10.6996 6.05782 10.0702 6.86669 10.0702C7.67555 10.0702 8.33335 10.6996 8.33335 11.4737C8.33335 12.2477 7.67555 12.8772 6.86669 12.8772ZM12 12.8772C11.1911 12.8772 10.5333 12.2477 10.5333 11.4737C10.5333 10.6996 11.1911 10.0702 12 10.0702C12.8089 10.0702 13.4667 10.6996 13.4667 11.4737C13.4667 12.2477 12.8089 12.8772 12 12.8772ZM17.1333 12.8772C16.3245 12.8772 15.6667 12.2477 15.6667 11.4737C15.6667 10.6996 16.3245 10.0702 17.1333 10.0702C17.9422 10.0702 18.6 10.6996 18.6 11.4737C18.6 12.2477 17.9422 12.8772 17.1333 12.8772Z" fill="#003399"/>
</svg>
