<svg width="16" height="16" viewBox="0 0 16 16" fill="none" xmlns="http://www.w3.org/2000/svg">
    <path d="M5.99992 12.333H9.99992M4.39992 1.33301H11.5999C11.9733 1.33301 12.16 1.33301 12.3026 1.40567C12.428 1.46959 12.53 1.57157 12.5939 1.69701C12.6666 1.83962 12.6666 2.02631 12.6666 2.39967V3.78269C12.6666 4.10881 12.6666 4.27187 12.6297 4.42532C12.5971 4.56137 12.5432 4.69142 12.4701 4.81072C12.3876 4.94528 12.2723 5.06058 12.0417 5.29118L10.0875 7.24543C9.82349 7.50944 9.69148 7.64144 9.64202 7.79366C9.59852 7.92756 9.59852 8.07179 9.64202 8.20569C9.69148 8.35791 9.82349 8.48991 10.0875 8.75392L12.0417 10.7082C12.2723 10.9388 12.3876 11.0541 12.4701 11.1886C12.5432 11.3079 12.5971 11.438 12.6297 11.574C12.6666 11.7275 12.6666 11.8905 12.6666 12.2167V13.5997C12.6666 13.973 12.6666 14.1597 12.5939 14.3023C12.53 14.4278 12.428 14.5298 12.3026 14.5937C12.16 14.6663 11.9733 14.6663 11.5999 14.6663H4.39992C4.02655 14.6663 3.83987 14.6663 3.69726 14.5937C3.57182 14.5298 3.46983 14.4278 3.40591 14.3023C3.33325 14.1597 3.33325 13.973 3.33325 13.5997V12.2167C3.33325 11.8905 3.33325 11.7275 3.37009 11.574C3.40275 11.438 3.45663 11.3079 3.52973 11.1886C3.61219 11.0541 3.72749 10.9388 3.95809 10.7082L5.91234 8.75392C6.17635 8.48991 6.30836 8.35791 6.35781 8.20569C6.40132 8.07179 6.40132 7.92756 6.35781 7.79366C6.30836 7.64145 6.17635 7.50943 5.91234 7.24543L3.95809 5.29118C3.72749 5.06058 3.61219 4.94528 3.52973 4.81072C3.45663 4.69142 3.40275 4.56137 3.37009 4.42532C3.33325 4.27187 3.33325 4.10881 3.33325 3.78269V2.39967C3.33325 2.02631 3.33325 1.83962 3.40591 1.69701C3.46983 1.57157 3.57182 1.46959 3.69726 1.40567C3.83987 1.33301 4.02655 1.33301 4.39992 1.33301Z" stroke="white" stroke-width="1.5" stroke-linecap="round" stroke-linejoin="round"/>
</svg>