<svg width="24" height="24" viewBox="0 0 24 24" fill="none" xmlns="http://www.w3.org/2000/svg">
    <path d="M21.1668 0.999756H13.5467C13.0426 0.999756 12.3381 1.29179 11.9819 1.64768L1.53476 12.0948C0.82142 12.8073 0.82142 13.9755 1.53476 14.6872L9.31351 22.4657C10.0252 23.1782 11.1923 23.1782 11.9052 22.4649L22.3523 12.0194C22.7081 11.6636 23.0002 10.9579 23.0002 10.4549V2.83321C23.0002 1.82504 22.1749 0.999756 21.1668 0.999756ZM17.4998 8.33329C16.4872 8.33329 15.6664 7.51155 15.6664 6.49984C15.6664 5.48646 16.4872 4.66639 17.4998 4.66639C18.5124 4.66639 19.3335 5.48646 19.3335 6.49984C19.3336 7.51155 18.5124 8.33329 17.4998 8.33329Z" fill="#003399"/>
</svg>
