<svg width="24" height="24" viewBox="0 0 24 24" fill="none" xmlns="http://www.w3.org/2000/svg">
    <path d="M23.1874 15.5468H22.5986V11.5566C22.5986 11.0837 22.422 10.6404 22.0687 10.3152L18.4181 6.62062C18.0942 6.29549 17.6526 6.08859 17.1816 6.08859H15.5329V4.31517C15.5329 3.33979 14.738 2.54175 13.7665 2.54175H1.9903C1.01877 2.54175 0.223877 3.33979 0.223877 4.31517V16.138C0.223877 17.1134 1.01877 17.9114 1.9903 17.9114H2.57911C2.57911 19.8622 4.16889 21.4582 6.11196 21.4582C8.05503 21.4582 9.64481 19.8622 9.64481 17.9114H14.3553C14.3553 19.8622 15.9451 21.4582 17.8881 21.4582C19.8312 21.4582 21.421 19.8622 21.421 17.9114H23.1874C23.5112 17.9114 23.7762 17.6454 23.7762 17.3203V16.138C23.7762 15.8128 23.5112 15.5468 23.1874 15.5468ZM6.11196 19.6848C5.14043 19.6848 4.34554 18.8868 4.34554 17.9114C4.34554 16.936 5.14043 16.138 6.11196 16.138C7.0835 16.138 7.87839 16.936 7.87839 17.9114C7.87839 18.8868 7.0835 19.6848 6.11196 19.6848ZM17.8881 19.6848C16.9166 19.6848 16.1217 18.8868 16.1217 17.9114C16.1217 16.936 16.9166 16.138 17.8881 16.138C18.8597 16.138 19.6546 16.936 19.6546 17.9114C19.6546 18.8868 18.8597 19.6848 17.8881 19.6848ZM20.8322 12H15.5329V7.86201H17.1521L20.8322 11.5566V12Z" fill="#003399"/>
</svg>
