<svg width="16" height="16" viewBox="0 0 16 16" fill="none" xmlns="http://www.w3.org/2000/svg">
    <g clip-path="url(#clip0_1_540)">
        <path d="M14.7615 3.84448L8.23489 0.0631711C8.08961 -0.0210164 7.91033 -0.0210164 7.76505 0.0631711L1.23573 3.84445C1.0918 3.92786 1.00195 4.08314 1.00195 4.24964C1.00195 4.25058 1.00205 4.25151 1.00205 4.25242V11.75C1.00205 11.9181 1.09339 12.0755 1.24048 12.1583L7.76508 15.9369C7.83536 15.9776 7.91898 16 8.00002 16C8.08461 16 8.16727 15.9761 8.23495 15.9369L14.7569 12.1582C14.758 12.1576 14.759 12.157 14.7601 12.1564C14.9113 12.0473 14.9928 11.9556 14.995 11.7557C14.9951 11.7538 14.9952 11.752 14.9952 11.7501V4.25248C14.9952 4.25155 14.9953 4.25061 14.9953 4.2497C14.9953 4.08305 14.9054 3.92773 14.7615 3.84448ZM7.53136 14.7183L2.4118 11.7522L6.35864 9.48877C6.58317 9.36002 6.6608 9.07364 6.53202 8.84914C6.4033 8.62461 6.11692 8.54702 5.89239 8.67577L1.9392 10.9411V5.05967L7.53136 8.27123V14.7183ZM7.99998 7.45958L2.41111 4.2483L7.99998 1.01023L13.5889 4.2483L7.99998 7.45958ZM14.061 10.9411L10.1076 8.67573C9.88308 8.54702 9.5967 8.62458 9.46795 8.84911C9.33917 9.07364 9.4168 9.35998 9.64133 9.48873L13.5882 11.7521L8.46858 14.7183V8.27123L14.061 5.05967V10.9411H14.061Z" fill="#FF0000"/>
    </g>
    <defs>
        <clipPath id="clip0_1_540">
            <rect width="16" height="16" fill="white"/>
        </clipPath>
    </defs>
</svg>
