<svg width="16" height="13" viewBox="0 0 16 13" fill="none" xmlns="http://www.w3.org/2000/svg">
    <path d="M4.81785 1.19581C5.79526 1.214 6.74731 1.61743 7.42975 2.6883C7.68333 3.08549 8.31628 3.08549 8.57087 2.6883C9.25352 1.61762 10.2056 1.21418 11.1828 1.19581C12.1602 1.17652 13.1607 1.59392 13.7778 2.26558C14.9687 3.56314 15.1208 5.83072 13.3774 7.41929L8.00021 11.6149L2.62223 7.41929C0.879809 5.8309 1.03094 3.56314 2.22278 2.26558C2.8399 1.59392 3.84044 1.17652 4.81785 1.19581ZM4.84625 0.000939052C3.44952 -0.0260668 2.09396 0.538669 1.20845 1.50206C-0.429287 3.28574 -0.527677 6.25179 1.69127 8.26786C1.70304 8.2787 1.71562 8.28899 1.7284 8.29946L7.57034 12.8557C7.81763 13.0481 8.1832 13.0481 8.43029 12.8557L14.2732 8.29946C14.286 8.28899 14.2976 8.2787 14.3094 8.26786C16.5283 6.25161 16.4287 3.28574 14.7912 1.50206C13.9069 0.538485 12.5501 -0.0262505 11.1542 0.000939052C9.99621 0.0226172 8.87943 0.605356 8.00021 1.55938C7.12119 0.605356 6.00441 0.0226172 4.84625 0.000939052Z" fill="#7E7B86"/>
</svg>
