<svg width="25" height="21" viewBox="0 0 25 21" fill="none" xmlns="http://www.w3.org/2000/svg">
<path fill-rule="evenodd" clip-rule="evenodd" d="M1.16334 13.5698C1.16332 13.7683 1.1633 13.9669 1.16327 14.1853C1.16319 14.8131 1.16309 15.6049 1.16309 17.032H2.89422H3.47126C3.47126 18.9362 5.02928 20.4942 6.93352 20.4942C8.83777 20.4942 10.3958 18.9362 10.3958 17.032H15.0121C15.0121 18.9362 16.5702 20.4942 18.4744 20.4942C20.3786 20.4942 21.9367 18.9362 21.9367 17.032H23.6678C23.9852 17.032 24.2448 16.7723 24.2448 16.4549V15.3008C24.2448 14.9835 23.9852 14.7238 23.6678 14.7238H23.0907V10.8287C23.0907 10.3671 22.9176 9.93433 22.5714 9.61695L18.9937 6.01043C18.6764 5.69305 18.2436 5.49109 17.7819 5.49109H15.0119L13.8581 6.64518L13.8579 10.1074H13.8576V12.5698C13.8576 13.1221 13.4099 13.5698 12.8576 13.5698H3.47078H1.16334ZM5.20239 17.032C5.20239 17.9841 5.9814 18.7631 6.93352 18.7631C7.88565 18.7631 8.66466 17.9841 8.66466 17.032C8.66466 16.0798 7.88565 15.3008 6.93352 15.3008C5.9814 15.3008 5.20239 16.0798 5.20239 17.032ZM16.7433 17.032C16.7433 17.9841 17.5223 18.7631 18.4744 18.7631C19.4265 18.7631 20.2055 17.9841 20.2055 17.032C20.2055 16.0798 19.4265 15.3008 18.4744 15.3008C17.5223 15.3008 16.7433 16.0798 16.7433 17.032ZM16.1662 11.2615H21.3596V10.8287L17.7531 7.22222H16.1662V11.2615Z" fill="#003399"/>
<path d="M6.00274 0.660718C5.88941 0.707994 5.81545 0.818317 5.81545 0.940743L5.81545 4.26164L0.547207 7.16998C0.379919 7.16998 0.24414 7.30576 0.24414 7.47305L0.24414 9.41364C0.24414 9.58093 0.37992 9.7167 0.547207 9.7167L5.81548 9.7167L5.81548 13.0503C5.81548 13.1728 5.88944 13.2831 6.00217 13.3304C6.11551 13.377 6.24583 13.3516 6.33252 13.2649L12.3985 7.21889C12.4555 7.16193 12.4876 7.08493 12.4876 7.00433C12.4876 6.92373 12.4555 6.84673 12.3991 6.78976L6.33311 0.726178C6.2464 0.639495 6.1161 0.61344 6.00274 0.660718Z" fill="#003399"/>
</svg>
