<svg width="8" height="66" viewBox="0 0 8 66" fill="none" xmlns="http://www.w3.org/2000/svg">
    <circle cx="4" cy="4" r="3" stroke="#15BA4D" stroke-width="2"/>
    <path d="M4 9L4 55" stroke="#15BA4D" stroke-dasharray="2 2"/>
    <path d="M4 56C1.9325 56 0.25 57.6942 0.25 59.7771C0.25 62.7367 3.6475 65.7925 3.79208 65.9208C3.85167 65.9737 3.92583 66 4 66C4.07417 66 4.14833 65.9738 4.20792 65.9213C4.3525 65.7925 7.75 62.7367 7.75 59.7771C7.75 57.6942 6.0675 56 4 56ZM4 61.8333C2.85125 61.8333 1.91667 60.8987 1.91667 59.75C1.91667 58.6012 2.85125 57.6667 4 57.6667C5.14875 57.6667 6.08333 58.6012 6.08333 59.75C6.08333 60.8987 5.14875 61.8333 4 61.8333Z" fill="#15BA4D"/>
</svg>
