<svg width="22" height="23" viewBox="0 0 22 23" fill="none" xmlns="http://www.w3.org/2000/svg">
    <g clip-path="url(#clip0_1_618)">
        <path d="M7.73438 13.5729H0.859375C0.384742 13.5729 0 13.9577 0 14.4323V21.3073C0 21.7819 0.384742 22.1667 0.859375 22.1667H7.73438C8.20901 22.1667 8.59375 21.7819 8.59375 21.3073V14.4323C8.59375 13.9577 8.20901 13.5729 7.73438 13.5729ZM6.875 20.4479H1.71875V15.2917H3.4375V16.1511C3.4375 16.6257 3.82224 17.0104 4.29688 17.0104C4.77151 17.0104 5.15625 16.6257 5.15625 16.1511V15.2917H6.875V20.4479Z" fill="#7E7B86"/>
        <path d="M17.7031 0.166687C15.3338 0.166687 13.4062 2.09427 13.4062 4.46356C13.4062 5.21771 13.6047 5.95986 13.9801 6.60985L16.9589 11.7683C17.1124 12.0342 17.3961 12.1979 17.7031 12.1979C18.0101 12.1979 18.2938 12.0342 18.4473 11.7683L21.4262 6.60985C21.8016 5.95986 22 5.21771 22 4.46356C22 2.09427 20.0724 0.166687 17.7031 0.166687ZM19.9378 5.75035L17.7031 9.62011L15.4684 5.75035C15.2438 5.36131 15.125 4.91632 15.125 4.46356C15.125 3.04198 16.2815 1.88544 17.7031 1.88544C19.1247 1.88544 20.2812 3.04198 20.2812 4.46356C20.2812 4.91632 20.1625 5.36131 19.9378 5.75035Z" fill="#7E7B86"/>
        <path d="M18.3109 14.1685C17.9811 13.8387 17.4353 13.8287 17.0954 14.1685L15.3768 15.8871C15.0411 16.2228 15.0411 16.7669 15.3768 17.1025C15.7124 17.4381 16.2565 17.4381 16.5921 17.1025L16.8438 16.8508V17.8698C16.8438 19.3155 15.7491 20.4479 14.3516 20.4479C12.9542 20.4479 11.8594 19.3155 11.8594 17.8698V9.27606C11.8594 6.89826 10.0197 4.97919 7.6485 4.97919C5.27409 4.97919 3.43756 6.90165 3.43756 9.27606V10.9948C3.43756 11.4694 3.8223 11.8542 4.29694 11.8542C4.77157 11.8542 5.15631 11.4694 5.15631 10.9948V9.27606C5.15631 7.83038 6.25103 6.69794 7.6485 6.69794C9.04597 6.69794 10.1407 7.83038 10.1407 9.27606V17.8698C10.1407 20.2476 11.9804 22.1667 14.3516 22.1667C16.726 22.1667 18.5626 20.2442 18.5626 17.8698V16.8508L18.8143 17.1025C19.1499 17.4381 19.694 17.4381 20.0296 17.1025C20.3652 16.7668 20.3652 16.2227 20.0296 15.8871L18.3109 14.1685Z" fill="#7E7B86"/>
        <path d="M17.7031 5.32294C18.1777 5.32294 18.5625 4.93818 18.5625 4.46356C18.5625 3.98894 18.1777 3.60419 17.7031 3.60419C17.2285 3.60419 16.8438 3.98894 16.8438 4.46356C16.8438 4.93818 17.2285 5.32294 17.7031 5.32294Z" fill="#7E7B86"/>
    </g>
    <defs>
        <clipPath id="clip0_1_618">
            <rect width="22" height="22" fill="white" transform="translate(0 0.166687)"/>
        </clipPath>
    </defs>
</svg>
