<svg width="22" height="23" viewBox="0 0 22 23" fill="none" xmlns="http://www.w3.org/2000/svg">
    <g clip-path="url(#clip0_1_640)">
        <path d="M19.5938 8.76044C19.1191 8.76044 18.7344 9.14518 18.7344 9.61981V16.1511C18.7344 16.6249 18.3489 17.0104 17.875 17.0104H7.5625C7.08864 17.0104 6.70312 16.6249 6.70312 16.1511V2.74481C6.70312 2.27095 7.08864 1.88544 7.5625 1.88544H13.5781V4.46356C13.5781 5.88514 14.7347 7.04169 16.1562 7.04169H19.5938C19.9413 7.04169 20.2547 6.8323 20.3877 6.5112C20.5208 6.19005 20.4472 5.82043 20.2015 5.57465L15.0452 0.418398C14.88 0.253269 14.6553 0.166687 14.4375 0.166687H7.5625C6.14092 0.166687 4.98438 1.32323 4.98438 2.74481V3.60419H4.125C2.70342 3.60419 1.54688 4.76073 1.54688 6.18231V19.5886C1.54688 21.0101 2.70342 22.1667 4.125 22.1667H14.4375C15.8591 22.1667 17.0156 21.0101 17.0156 19.5886V18.7292H17.875C19.2966 18.7292 20.4531 17.5726 20.4531 16.1511V9.61981C20.4531 9.14518 20.0684 8.76044 19.5938 8.76044ZM16.1562 5.32294C15.6824 5.32294 15.2969 4.93742 15.2969 4.46356V3.10076L17.519 5.32294H16.1562ZM15.2969 19.5886C15.2969 20.0624 14.9114 20.4479 14.4375 20.4479H4.125C3.65114 20.4479 3.26562 20.0624 3.26562 19.5886V6.18231C3.26562 5.70845 3.65114 5.32294 4.125 5.32294H4.98438V16.1511C4.98438 17.5726 6.14092 18.7292 7.5625 18.7292H15.2969V19.5886Z" fill="#7E7B86"/>
        <path d="M16.1562 10.4792H9.28125C8.80662 10.4792 8.42188 10.0944 8.42188 9.61981C8.42188 9.14518 8.80662 8.76044 9.28125 8.76044H16.1562C16.6309 8.76044 17.0156 9.14518 17.0156 9.61981C17.0156 10.0944 16.6309 10.4792 16.1562 10.4792Z" fill="#7E7B86"/>
        <path d="M16.1562 13.9167H9.28125C8.80662 13.9167 8.42188 13.5319 8.42188 13.0573C8.42188 12.5827 8.80662 12.1979 9.28125 12.1979H16.1562C16.6309 12.1979 17.0156 12.5827 17.0156 13.0573C17.0156 13.5319 16.6309 13.9167 16.1562 13.9167Z" fill="#7E7B86"/>
    </g>
    <defs>
        <clipPath id="clip0_1_640">
            <rect width="22" height="22" fill="white" transform="translate(0 0.166687)"/>
        </clipPath>
    </defs>
</svg>
