<svg width="25" height="24" viewBox="0 0 25 24" fill="none" xmlns="http://www.w3.org/2000/svg">
<g id="file-06">
<path id="Icon" d="M14.625 3.24258V6.96007C14.625 7.46411 14.625 7.71613 14.7231 7.90866C14.8094 8.078 14.9471 8.21568 15.1164 8.30197C15.3089 8.40006 15.561 8.40006 16.065 8.40006H19.7825M16.425 12.9H9.225M16.425 16.5H9.225M11.025 9.3H9.225M14.625 3H9.945C8.43286 3 7.67679 3 7.09923 3.29428C6.59119 3.55314 6.17814 3.96619 5.91928 4.47423C5.625 5.05179 5.625 5.80786 5.625 7.32V16.68C5.625 18.1921 5.625 18.9482 5.91928 19.5258C6.17814 20.0338 6.59119 20.4469 7.09923 20.7057C7.67679 21 8.43286 21 9.945 21H15.705C17.2171 21 17.9732 21 18.5508 20.7057C19.0588 20.4469 19.4719 20.0338 19.7307 19.5258C20.025 18.9482 20.025 18.1921 20.025 16.68V8.4L14.625 3Z" stroke="#007AFF" stroke-width="1.5" stroke-linecap="round" stroke-linejoin="round"/>
</g>
</svg>
