<svg width="24" height="24" viewBox="0 0 24 24" fill="none" xmlns="http://www.w3.org/2000/svg">
    <g clip-path="url(#clip0_1_650)">
        <path d="M6.60938 12.3854H9.30469V11.4684C8.18501 10.6247 7.50781 9.29809 7.50781 7.89325V5.55731H4.8125C4.31629 5.55731 3.91406 5.15508 3.91406 4.65887C3.91406 4.16267 4.31629 3.76044 4.8125 3.76044H7.59815C8.01552 1.71249 9.83059 0.166687 12 0.166687C14.477 0.166687 16.4922 2.18188 16.4922 4.65887V7.89325C16.4922 9.29809 15.815 10.6248 14.6953 11.4684V12.3854H17.3906C19.8676 12.3854 21.8828 14.4006 21.8828 16.8776V22.2682C21.8828 22.7645 21.4806 23.1667 20.9844 23.1667H3.01562C2.51942 23.1667 2.11719 22.7645 2.11719 22.2682V16.8776C2.11719 14.4006 4.13238 12.3854 6.60938 12.3854ZM9.30469 7.89325C9.30469 8.8531 9.80947 9.71995 10.655 10.212C10.9315 10.3729 11.1016 10.6687 11.1016 10.9885V13.2839C11.1016 13.7793 11.5046 14.1823 12 14.1823C12.4954 14.1823 12.8984 13.7793 12.8984 13.2839V10.9885C12.8984 10.6687 13.0685 10.3729 13.345 10.212C14.1905 9.71995 14.6953 8.8531 14.6953 7.89325V5.55731H9.30469V7.89325ZM12 1.96356C10.8288 1.96356 9.83014 2.71475 9.45922 3.76044H14.5408C14.1699 2.71475 13.1712 1.96356 12 1.96356ZM17.3906 14.1823H14.5408C14.1699 15.228 13.1712 15.9792 12 15.9792C10.8288 15.9792 9.83014 15.228 9.45922 14.1823H6.60938C5.12318 14.1823 3.91406 15.3914 3.91406 16.8776V17.7761H6.60938C7.10558 17.7761 7.50781 18.1783 7.50781 18.6745V21.3698H16.4922V18.6745C16.4922 18.1783 16.8944 17.7761 17.3906 17.7761H20.0859V16.8776C20.0859 15.3914 18.8768 14.1823 17.3906 14.1823ZM3.91406 19.5729V21.3698H5.71094V19.5729H3.91406ZM20.0859 19.5729H18.2891V21.3698H20.0859V19.5729Z" fill="#7E7B86"/>
        <path d="M10.2031 19.5729C9.70693 19.5729 9.30469 19.1707 9.30469 18.6745C9.30469 18.1783 9.70693 17.7761 10.2031 17.7761C10.6993 17.7761 11.1016 18.1783 11.1016 18.6745C11.1016 19.1707 10.6993 19.5729 10.2031 19.5729Z" fill="#7E7B86"/>
    </g>
    <defs>
        <clipPath id="clip0_1_650">
            <rect width="23" height="23" fill="white" transform="matrix(-1 0 0 1 23.5 0.166687)"/>
        </clipPath>
    </defs>
</svg>
