<svg width="22" height="23" viewBox="0 0 22 23" fill="none" xmlns="http://www.w3.org/2000/svg">
    <path fill-rule="evenodd" clip-rule="evenodd" d="M7.39062 0.166687H21.1406C21.6153 0.166687 22 0.551429 22 1.02606V14.7761C22 15.2507 21.6153 15.6354 21.1406 15.6354H15.9844C15.5379 15.6354 15.171 15.295 15.129 14.8596C15.0874 14.8246 15.0651 14.7891 15.0651 14.7537C15.0651 8.5843 9.48537 7.1015 7.17378 7.1015L7.1853 7.01701C6.80981 6.92497 6.53124 6.58618 6.53124 6.18231V1.02606C6.53124 0.551429 6.91599 0.166687 7.39062 0.166687ZM14.2656 3.99278L15.6033 5.06413V1.88544H12.928V5.06413L14.2656 3.99278ZM1.37503 14.7761C1.37503 11.459 4.07364 8.76043 7.39066 8.76043C10.7077 8.76043 13.4063 11.459 13.4063 14.7761C13.4063 18.0931 10.7077 20.7917 7.39066 20.7917C6.04144 20.7917 4.79453 20.3451 3.78992 19.5921L1.46707 21.915C1.13144 22.2506 0.587372 22.2506 0.2517 21.915C-0.0839287 21.5794 -0.0838858 21.0353 0.251743 20.6996L2.57459 18.3768C1.82161 17.3722 1.37503 16.1253 1.37503 14.7761ZM3.09378 14.7761C3.09378 17.1453 5.02132 19.0729 7.39066 19.0729C9.76 19.0729 11.6875 17.1453 11.6875 14.7761C11.6875 12.4068 9.76 10.4792 7.39066 10.4792C5.02132 10.4792 3.09378 12.4068 3.09378 14.7761Z" fill="#007AFF"/>
</svg>
