<svg width="24" height="17" viewBox="0 0 24 17" fill="none" xmlns="http://www.w3.org/2000/svg">
    <path d="M8.14697 4.59238V5.55059V7.85371V10.651V13.0508C8.14697 13.4418 8.15771 13.835 8.14697 14.226V14.241L7.50244 13.5965C8.08896 13.5965 8.67549 13.5965 9.26201 13.5965C10.1901 13.5965 11.1161 13.5965 12.0442 13.5965C12.2591 13.5965 12.4739 13.5965 12.6888 13.5965L12.0442 14.241C12.0485 13.777 12.1817 13.2936 12.4546 12.9133C12.7575 12.4922 13.1464 12.1914 13.6341 12.0088C14.5085 11.6822 15.5999 11.9723 16.1929 12.6941C16.5581 13.1367 16.7665 13.6609 16.7729 14.241L16.1284 13.5965C16.4292 13.5965 16.7278 13.5965 17.0286 13.5965C17.2284 13.5965 17.4261 13.5965 17.6259 13.5965C17.7333 13.5965 17.845 13.6029 17.9524 13.59C17.8944 13.5986 17.8386 13.6051 17.7806 13.6137C17.8278 13.6051 17.8708 13.5922 17.9159 13.575L17.7612 13.6395C17.787 13.6266 17.8106 13.6137 17.8343 13.6008C17.9288 13.5514 17.7075 13.7168 17.7999 13.6244C17.888 13.5363 17.744 13.7254 17.7698 13.6695C17.7827 13.6416 17.8021 13.6137 17.8171 13.5836C17.7956 13.6352 17.7741 13.6867 17.7526 13.7383C17.7698 13.6932 17.7827 13.6502 17.7913 13.6029C17.7827 13.6609 17.7763 13.7168 17.7677 13.7748C17.7806 13.6717 17.7741 13.5664 17.7741 13.4633C17.7741 13.2463 17.7741 13.0271 17.7741 12.8102C17.7741 12.084 17.7741 11.3578 17.7741 10.6295C17.7741 9.74219 17.7741 8.85703 17.7741 7.96973C17.7741 7.20918 17.7741 6.44863 17.7741 5.68594C17.7741 5.325 17.7806 4.96191 17.7741 4.60098C17.7741 4.56875 17.772 4.53652 17.7677 4.5043C17.7763 4.5623 17.7827 4.61816 17.7913 4.67617C17.7827 4.62891 17.7698 4.58594 17.7526 4.54082C17.7741 4.59238 17.7956 4.64395 17.8171 4.69551C17.8042 4.66973 17.7913 4.64609 17.7784 4.62246C17.729 4.52793 17.8944 4.74922 17.8021 4.65684C17.714 4.56875 17.903 4.7127 17.8472 4.68691C17.8192 4.67402 17.7913 4.65469 17.7612 4.63965C17.8128 4.66113 17.8644 4.68262 17.9159 4.7041C17.8708 4.68691 17.8278 4.67402 17.7806 4.66543C17.8386 4.67402 17.8944 4.68047 17.9524 4.68906C17.8429 4.67402 17.7312 4.68262 17.6216 4.68262H16.9147H14.5579H11.7091H9.24267C8.85166 4.68262 8.46279 4.67617 8.07178 4.68262C8.03955 4.68262 8.00518 4.68477 7.97295 4.68906C8.03096 4.68047 8.08682 4.67402 8.14482 4.66543C8.09756 4.67402 8.05459 4.68691 8.00947 4.7041C8.06103 4.68262 8.1126 4.66113 8.16416 4.63965C8.13838 4.65254 8.11475 4.66543 8.09111 4.67832C7.99658 4.72773 8.21787 4.5623 8.12549 4.65469C8.0374 4.74277 8.18135 4.55371 8.15557 4.60957C8.14268 4.6375 8.12334 4.66543 8.1083 4.69551C8.12978 4.64395 8.15127 4.59238 8.17275 4.54082C8.15557 4.58594 8.14268 4.62891 8.13408 4.67617C8.14268 4.61816 8.14912 4.5623 8.15771 4.5043C8.15127 4.53438 8.14912 4.56445 8.14697 4.59238C8.13838 4.92969 7.85693 5.25195 7.50244 5.23691C7.16084 5.22187 6.84932 4.95332 6.85791 4.59238C6.8751 3.92852 7.39287 3.40859 8.05674 3.39355C8.08682 3.39355 8.11689 3.39355 8.14912 3.39355C8.36396 3.39355 8.57881 3.39355 8.79365 3.39355C9.64658 3.39355 10.5017 3.39355 11.3546 3.39355C12.4224 3.39355 13.488 3.39355 14.5558 3.39355C15.4108 3.39355 16.2659 3.39355 17.121 3.39355C17.338 3.39355 17.5528 3.39355 17.7698 3.39355C17.8021 3.39355 17.8321 3.39355 17.8644 3.39355C18.5218 3.40859 19.0267 3.91133 19.0632 4.56445C19.0696 4.69121 19.0632 4.81797 19.0632 4.94473V5.89219V8.80762V11.8928V13.6309C19.0632 13.7791 19.0503 13.9295 18.9987 14.0691C18.8183 14.5676 18.3671 14.8855 17.8364 14.8877C17.3938 14.8898 16.9513 14.8877 16.5087 14.8877H16.1263C15.7761 14.8877 15.4839 14.5934 15.4817 14.2432C15.4817 14.1637 15.4753 14.0842 15.4646 14.0047C15.4731 14.0627 15.4796 14.1186 15.4882 14.1766C15.4667 14.0326 15.4302 13.893 15.3743 13.7598C15.3958 13.8113 15.4173 13.8629 15.4388 13.9145C15.3958 13.8135 15.3464 13.7189 15.2862 13.6266C15.2712 13.6029 15.254 13.5814 15.239 13.5578C15.1981 13.4955 15.3442 13.6867 15.2798 13.6115C15.2433 13.5686 15.2067 13.5256 15.1659 13.4869C15.1294 13.4504 15.0907 13.416 15.0521 13.3838C14.964 13.3064 15.1058 13.4182 15.1058 13.4246C15.1058 13.4139 15.0499 13.3838 15.037 13.3752C14.9425 13.3129 14.8415 13.2592 14.7384 13.2162C14.7899 13.2377 14.8415 13.2592 14.8931 13.2807C14.7577 13.227 14.6202 13.1883 14.4763 13.1668C14.5343 13.1754 14.5901 13.1818 14.6481 13.1904C14.4892 13.1689 14.3302 13.1689 14.1712 13.1904C14.2292 13.1818 14.2851 13.1754 14.3431 13.1668C14.1991 13.1883 14.0595 13.2248 13.9263 13.2807C13.9778 13.2592 14.0294 13.2377 14.081 13.2162C13.98 13.2592 13.8854 13.3086 13.7931 13.3687C13.7694 13.3838 13.7479 13.401 13.7243 13.416C13.662 13.4568 13.8532 13.3107 13.7759 13.3752C13.7329 13.4117 13.6899 13.4482 13.6513 13.4891C13.6147 13.5256 13.5804 13.5643 13.5481 13.6029C13.4708 13.691 13.5825 13.5492 13.589 13.5492C13.5782 13.5492 13.5481 13.6051 13.5396 13.618C13.4772 13.7125 13.4235 13.8135 13.3806 13.9166C13.4021 13.865 13.4235 13.8135 13.445 13.7619C13.3913 13.8973 13.3526 14.0348 13.3312 14.1787C13.3397 14.1207 13.3462 14.0648 13.3548 14.0068C13.344 14.0863 13.3397 14.1658 13.3376 14.2453C13.3354 14.5934 13.0454 14.8898 12.6931 14.8898H10.9335H8.15127H7.50674C7.15869 14.8898 6.86221 14.5955 6.86221 14.2453C6.86221 13.9252 6.86221 13.6072 6.86221 13.2871C6.86221 12.5201 6.86221 11.751 6.86221 10.984C6.86221 10.0516 6.86221 9.11914 6.86221 8.18672C6.86221 7.3875 6.86221 6.58613 6.86221 5.78691C6.86221 5.3959 6.85361 5.00273 6.86221 4.61172C6.86221 4.60742 6.86221 4.60098 6.86221 4.59668C6.86221 4.25937 7.15869 3.93711 7.50674 3.95215C7.85264 3.96504 8.14697 4.23145 8.14697 4.59238Z" fill="#15BA4D"/>
    <path d="M1.28915 10.1181V11.39V13.3859C1.28915 13.5492 1.27626 13.7189 1.29345 13.8822C1.28485 13.8242 1.27841 13.7683 1.26982 13.7103C1.27626 13.749 1.287 13.7834 1.30204 13.8199C1.28056 13.7683 1.25907 13.7168 1.23759 13.6652C1.24618 13.6824 1.25478 13.6974 1.26337 13.7146C1.30634 13.8027 1.17099 13.6137 1.22255 13.6609C1.26337 13.6996 1.10224 13.5986 1.15595 13.6137C1.17528 13.618 1.20107 13.6394 1.21825 13.648L1.06357 13.5836C1.10009 13.5986 1.13447 13.6094 1.17314 13.6158C1.11513 13.6072 1.05927 13.6008 1.00126 13.5922C1.2247 13.6158 1.46103 13.5965 1.68446 13.5965C1.90575 13.5965 2.12919 13.5965 2.35048 13.5965L1.70595 14.241C1.6995 13.7812 1.8413 13.2892 2.10771 12.9111C2.41064 12.4836 2.8038 12.1785 3.29579 11.9937C4.1788 11.6629 5.26591 11.9637 5.86318 12.6898C6.22197 13.1281 6.44111 13.6674 6.43251 14.2388C6.21767 14.024 6.00282 13.8092 5.78798 13.5943C6.35732 13.5943 6.9288 13.5943 7.49814 13.5943L6.85361 14.2388C6.85361 13.9703 6.85361 13.7017 6.85361 13.4332C6.85361 12.7887 6.85361 12.1441 6.85361 11.4996C6.85361 10.7197 6.85361 9.93983 6.85361 9.16209C6.85361 8.48748 6.85361 7.81502 6.85361 7.14041C6.85361 6.81385 6.84286 6.48514 6.85361 6.16072C6.85361 6.15643 6.85361 6.14998 6.85361 6.14569C7.06845 6.36053 7.28329 6.57537 7.49814 6.79022H4.61923C4.45595 6.79022 4.28837 6.78162 4.12509 6.79881C4.1831 6.79022 4.23896 6.78377 4.29696 6.77518C4.19599 6.79022 4.10146 6.816 4.00907 6.85467C4.06064 6.83319 4.1122 6.8117 4.16376 6.79022C4.1079 6.816 4.00048 6.85467 3.96181 6.90623C3.95536 6.91483 4.07568 6.80741 4.02626 6.85682C4.01122 6.87186 3.99189 6.8869 3.97685 6.90194C3.95751 6.92127 3.93818 6.94276 3.91884 6.96424C3.91025 6.97283 3.9038 6.98143 3.89521 6.99217C3.84364 7.05233 3.78993 7.11033 3.73837 7.17049C3.52997 7.40682 3.32372 7.64315 3.11532 7.87947C2.62333 8.43807 2.13349 8.99666 1.6415 9.55526C1.56845 9.63904 1.4954 9.72283 1.42236 9.80447C1.40517 9.82381 1.39013 9.841 1.37294 9.86033C1.3665 9.86678 1.3622 9.87537 1.35575 9.87967C1.30849 9.92908 1.41161 9.81522 1.40302 9.81737C1.39013 9.82166 1.3622 9.87752 1.35575 9.89041C1.32782 9.93553 1.30634 9.9828 1.28485 10.0301C1.30634 9.9785 1.32782 9.92694 1.34931 9.87537C1.31493 9.96346 1.2913 10.0515 1.27626 10.1439C1.28486 10.0859 1.2913 10.0301 1.29989 9.97205C1.29345 10.0258 1.2913 10.0709 1.28915 10.1181C1.28271 10.4555 0.996964 10.7777 0.64462 10.7627C0.30087 10.7476 -0.00635624 10.4791 8.86917e-05 10.1181C0.00653458 9.67772 0.169816 9.291 0.455558 8.95799C0.481339 8.92576 0.509269 8.89569 0.537199 8.86561C0.702628 8.67869 0.86591 8.49178 1.03134 8.30487C1.51259 7.75701 1.99384 7.20916 2.47509 6.66346C2.63193 6.48514 2.78876 6.30682 2.9456 6.1285C3.27216 5.75682 3.70185 5.53983 4.19814 5.5076C4.36357 5.49686 4.53114 5.50545 4.69872 5.50545C5.04032 5.50545 5.38407 5.50545 5.72568 5.50545C6.3079 5.50545 6.89013 5.49901 7.47236 5.50545C7.4831 5.50545 7.49384 5.50545 7.50458 5.50545C7.85263 5.50545 8.14911 5.79979 8.14911 6.14998V6.95565V8.88924V11.2267V13.2484C8.14911 13.575 8.15556 13.9015 8.14911 14.2281V14.2431C8.14911 14.5912 7.85478 14.8877 7.50458 14.8877H5.79443C5.45068 14.8877 5.1456 14.5933 5.14989 14.2431C5.15204 14.1594 5.1456 14.0734 5.13271 13.9896C5.1413 14.0476 5.14775 14.1035 5.15634 14.1615C5.13486 14.0176 5.09833 13.8779 5.04247 13.7447C5.06396 13.7963 5.08544 13.8478 5.10693 13.8994C5.06396 13.7984 5.01454 13.7039 4.95439 13.6115C4.93935 13.5879 4.92216 13.5664 4.90712 13.5428C4.8663 13.4805 5.01239 13.6717 4.94794 13.5943C4.91142 13.5513 4.87489 13.5084 4.83407 13.4697C4.79755 13.4332 4.75888 13.3988 4.72021 13.3666C4.63212 13.2892 4.77392 13.401 4.77392 13.4074C4.77392 13.3967 4.71806 13.3666 4.70517 13.358C4.61064 13.2957 4.50966 13.242 4.40654 13.199C4.4581 13.2205 4.50966 13.242 4.56122 13.2635C4.42587 13.2097 4.28837 13.1711 4.14443 13.1496C4.20243 13.1582 4.25829 13.1646 4.3163 13.1732C4.15732 13.1517 3.99833 13.1517 3.83935 13.1732C3.89736 13.1646 3.95321 13.1582 4.01122 13.1496C3.86728 13.1711 3.72763 13.2076 3.59443 13.2635C3.64599 13.242 3.69755 13.2205 3.74911 13.199C3.64814 13.242 3.55361 13.2914 3.46122 13.3515C3.43759 13.3666 3.41611 13.3838 3.39247 13.3988C3.33017 13.4396 3.52138 13.2935 3.44618 13.358C3.40321 13.3945 3.36025 13.431 3.32157 13.4719C3.28505 13.5084 3.25068 13.5471 3.21845 13.5857C3.1411 13.6738 3.25282 13.532 3.25927 13.532C3.24853 13.532 3.21845 13.5879 3.20986 13.6008C3.14755 13.6953 3.09384 13.7963 3.05087 13.8994C3.07235 13.8478 3.09384 13.7963 3.11532 13.7447C3.06161 13.8801 3.02294 14.0176 3.00146 14.1615C3.01005 14.1035 3.0165 14.0476 3.02509 13.9896C3.01435 14.0734 3.0079 14.1572 3.0079 14.2431C3.0122 14.5912 2.70927 14.8877 2.36337 14.8877H1.19032C1.13661 14.8877 1.08075 14.8898 1.02704 14.8855C0.663956 14.8597 0.324503 14.6728 0.144034 14.3441C0.0323162 14.1422 0.0086832 13.9273 0.0086832 13.7039C0.0086832 12.808 0.0086832 11.9121 0.0086832 11.0162C0.0086832 10.7176 0.0086832 10.4168 0.0086832 10.1181C0.0086832 9.78084 0.305168 9.45858 0.653215 9.47362C0.994816 9.48865 1.28915 9.75721 1.28915 10.1181Z" fill="#15BA4D"/>
    <path d="M2.99932 14.2282C3.00147 14.3034 3.00576 14.3764 3.01435 14.4495C3.00576 14.3915 2.99932 14.3356 2.99072 14.2776C3.01221 14.4301 3.05088 14.5784 3.11103 14.7202C3.08955 14.6686 3.06807 14.6171 3.04658 14.5655C3.0874 14.66 3.13467 14.7524 3.19268 14.8383C3.20772 14.862 3.2249 14.8835 3.23994 14.9071C3.30225 14.9995 3.13252 14.7803 3.20771 14.8641C3.24209 14.9028 3.27432 14.9415 3.31084 14.978C3.34736 15.0145 3.38389 15.0489 3.42471 15.0833C3.46553 15.1176 3.54932 15.1563 3.38174 15.051C3.40107 15.0639 3.42041 15.079 3.43975 15.0919C3.52998 15.152 3.62451 15.2036 3.72334 15.2466C3.67178 15.2251 3.62022 15.2036 3.56865 15.1821C3.71045 15.2423 3.85869 15.2831 4.01123 15.3046C3.95322 15.296 3.89736 15.2895 3.83936 15.2809C3.99834 15.3024 4.15517 15.3024 4.31416 15.2809C4.25615 15.2895 4.20029 15.296 4.14228 15.3046C4.29482 15.2831 4.44307 15.2423 4.58486 15.1821C4.5333 15.2036 4.48174 15.2251 4.43018 15.2466C4.52471 15.2057 4.61709 15.1563 4.70303 15.0983C4.72666 15.0833 4.74814 15.0639 4.77178 15.051C4.61064 15.152 4.68584 15.1198 4.72881 15.0833C4.76748 15.051 4.80615 15.0145 4.84268 14.978C4.8792 14.9415 4.91143 14.9028 4.9458 14.8641C5.01455 14.7846 4.85127 14.9973 4.91357 14.9071C4.92646 14.8878 4.9415 14.8684 4.95439 14.8491C5.01455 14.7589 5.06396 14.6643 5.10693 14.5633C5.08545 14.6149 5.06396 14.6665 5.04248 14.718C5.10049 14.5741 5.14131 14.428 5.16279 14.2755C5.1542 14.3335 5.14775 14.3893 5.13916 14.4473C5.1585 14.2948 5.15635 14.1401 5.13701 13.9876C5.14561 14.0456 5.15205 14.1014 5.16064 14.1594C5.13916 14.0155 5.10264 13.8758 5.04678 13.7426C5.06826 13.7942 5.08975 13.8458 5.11123 13.8973C5.06826 13.7964 5.01885 13.7018 4.95869 13.6094C4.94365 13.5858 4.92647 13.5643 4.91143 13.5407C4.87061 13.4784 5.0167 13.6696 4.95225 13.5923C4.91572 13.5493 4.8792 13.5063 4.83838 13.4676C4.80186 13.4311 4.76318 13.3967 4.72451 13.3645C4.63643 13.2872 4.77822 13.3989 4.77822 13.4053C4.77822 13.3946 4.72236 13.3645 4.70947 13.3559C4.61494 13.2936 4.51396 13.2399 4.41084 13.1969C4.4624 13.2184 4.51396 13.2399 4.56553 13.2614C4.43018 13.2077 4.29268 13.169 4.14873 13.1475C4.20674 13.1561 4.2626 13.1626 4.32061 13.1712C4.16162 13.1497 4.00264 13.1497 3.84365 13.1712C3.90166 13.1626 3.95752 13.1561 4.01553 13.1475C3.87158 13.169 3.73193 13.2055 3.59873 13.2614C3.65029 13.2399 3.70186 13.2184 3.75342 13.1969C3.65244 13.2399 3.55791 13.2893 3.46553 13.3495C3.44189 13.3645 3.42041 13.3817 3.39678 13.3967C3.33447 13.4376 3.52568 13.2915 3.45049 13.3559C3.40752 13.3925 3.36455 13.429 3.32588 13.4698C3.28935 13.5063 3.25498 13.545 3.22275 13.5837C3.14541 13.6717 3.25713 13.53 3.26357 13.53C3.25283 13.53 3.22275 13.5858 3.21416 13.5987C3.15186 13.6932 3.09814 13.7942 3.05518 13.8973C3.07666 13.8458 3.09814 13.7942 3.11963 13.7426C3.06592 13.878 3.02725 14.0155 3.00576 14.1594C3.01436 14.1014 3.0208 14.0456 3.02939 13.9876C3.00576 14.0692 3.00147 14.1487 2.99932 14.2282C2.99717 14.5655 2.70498 14.8878 2.35479 14.8727C2.00889 14.8577 1.70811 14.5891 1.71025 14.2282C1.71455 13.7577 1.85205 13.2743 2.1292 12.8897C2.43428 12.4665 2.83389 12.1614 3.32803 11.9874C4.20889 11.6737 5.28955 11.9745 5.87607 12.705C6.20693 13.1153 6.396 13.5815 6.43252 14.11C6.46475 14.5676 6.33799 15.0553 6.09951 15.4464C5.86318 15.8352 5.50654 16.1704 5.08975 16.3594C4.5999 16.5829 4.07783 16.643 3.54932 16.5335C3.06377 16.4325 2.58896 16.1446 2.27529 15.76C1.9165 15.3196 1.7167 14.8018 1.71025 14.2303C1.70596 13.893 2.01104 13.5708 2.35479 13.5858C2.70928 13.6008 2.99502 13.8673 2.99932 14.2282Z" fill="#15BA4D"/>
    <path d="M13.3355 14.2433C13.3355 14.3228 13.3419 14.4023 13.3526 14.4818C13.344 14.4237 13.3376 14.3679 13.329 14.3099C13.3505 14.4538 13.387 14.5935 13.4429 14.7267L13.3784 14.572C13.4214 14.673 13.4708 14.7675 13.531 14.8599C13.546 14.8835 13.5632 14.905 13.5782 14.9286C13.619 14.9909 13.473 14.7997 13.5374 14.8771C13.5739 14.92 13.6105 14.963 13.6513 15.0017C13.6878 15.0382 13.7265 15.0726 13.7651 15.1048C13.8532 15.1821 13.7114 15.0704 13.7114 15.064C13.7114 15.0747 13.7673 15.1048 13.7802 15.1134C13.8747 15.1757 13.9757 15.2294 14.0788 15.2724L13.9241 15.2079C14.0595 15.2616 14.197 15.3003 14.3409 15.3218C14.2829 15.3132 14.2271 15.3068 14.169 15.2982C14.328 15.3196 14.487 15.3196 14.646 15.2982C14.588 15.3068 14.5321 15.3132 14.4741 15.3218C14.6181 15.3003 14.7577 15.2638 14.8909 15.2079L14.7362 15.2724C14.8372 15.2294 14.9317 15.18 15.0241 15.1198C15.0478 15.1048 15.0692 15.0876 15.0929 15.0726C15.1552 15.0318 14.964 15.1779 15.0413 15.1134C15.0843 15.0769 15.1273 15.0404 15.1659 14.9995C15.2024 14.963 15.2368 14.9243 15.269 14.8857C15.3464 14.7976 15.2347 14.9394 15.2282 14.9394C15.239 14.9394 15.269 14.8835 15.2776 14.8706C15.3399 14.7761 15.3937 14.6751 15.4366 14.572C15.4151 14.6236 15.3937 14.6751 15.3722 14.7267C15.4259 14.5913 15.4646 14.4538 15.486 14.3099C15.4774 14.3679 15.471 14.4237 15.4624 14.4818C15.4839 14.3228 15.4839 14.1638 15.4624 14.0048C15.471 14.0628 15.4774 14.1187 15.486 14.1767C15.4646 14.0327 15.428 13.8931 15.3722 13.7599C15.3937 13.8114 15.4151 13.863 15.4366 13.9146C15.3937 13.8136 15.3442 13.7191 15.2841 13.6267C15.269 13.603 15.2519 13.5816 15.2368 13.5579C15.196 13.4956 15.3421 13.6868 15.2776 13.6116C15.2411 13.5687 15.2046 13.5257 15.1638 13.487C15.1273 13.4505 15.0886 13.4161 15.0499 13.3839C14.9618 13.3066 15.1036 13.4183 15.1036 13.4247C15.1036 13.414 15.0478 13.3839 15.0349 13.3753C14.9403 13.313 14.8394 13.2593 14.7362 13.2163C14.7878 13.2378 14.8394 13.2593 14.8909 13.2808C14.7556 13.2271 14.6181 13.1884 14.4741 13.1669C14.5321 13.1755 14.588 13.182 14.646 13.1905C14.487 13.1691 14.328 13.1691 14.169 13.1905C14.2271 13.182 14.2829 13.1755 14.3409 13.1669C14.197 13.1884 14.0573 13.2249 13.9241 13.2808C13.9757 13.2593 14.0273 13.2378 14.0788 13.2163C13.9778 13.2593 13.8833 13.3087 13.7909 13.3689C13.7673 13.3839 13.7458 13.4011 13.7222 13.4161C13.6599 13.457 13.8511 13.3109 13.7737 13.3753C13.7308 13.4118 13.6878 13.4484 13.6491 13.4892C13.6126 13.5257 13.5782 13.5644 13.546 13.603C13.4687 13.6911 13.5804 13.5493 13.5868 13.5493C13.5761 13.5493 13.546 13.6052 13.5374 13.6181C13.4751 13.7126 13.4214 13.8136 13.3784 13.9167C13.3999 13.8652 13.4214 13.8136 13.4429 13.762C13.3892 13.8974 13.3505 14.0349 13.329 14.1788C13.3376 14.1208 13.344 14.065 13.3526 14.007C13.3419 14.0843 13.3355 14.1638 13.3355 14.2433C13.3333 14.5806 13.0411 14.9029 12.6909 14.8878C12.345 14.8728 12.0442 14.6042 12.0464 14.2433C12.0507 13.7792 12.1839 13.2958 12.4567 12.9155C12.7597 12.4945 13.1485 12.1937 13.6362 12.0111C14.5106 11.6845 15.6021 11.9745 16.195 12.6964C16.5302 13.1046 16.7214 13.5644 16.7687 14.0929C16.8095 14.557 16.6827 15.0532 16.4421 15.4507C16.2101 15.8353 15.8556 16.179 15.4452 16.3638C14.9532 16.5851 14.4462 16.6517 13.9155 16.5507C12.8327 16.3445 12.0571 15.3239 12.0485 14.2411C12.0464 13.9038 12.3472 13.5816 12.6931 13.5966C13.0411 13.6138 13.3312 13.8823 13.3355 14.2433Z" fill="#15BA4D"/>
    <path d="M0.773528 9.07178C1.53622 9.07178 2.29677 9.07178 3.05947 9.07178C4.26474 9.07178 5.47001 9.07178 6.67314 9.07178C6.94814 9.07178 7.22529 9.07178 7.50029 9.07178C7.83759 9.07178 8.15986 9.36826 8.14482 9.71631C8.12978 10.0665 7.86122 10.3608 7.50029 10.3608H5.21435H1.60068H0.773528C0.436224 10.3608 0.113957 10.0644 0.128997 9.71631C0.146184 9.36826 0.412591 9.07178 0.773528 9.07178Z" fill="#15BA4D"/>
    <circle cx="18.0328" cy="5.5" r="3.5" fill="white"/>
    <path fill-rule="evenodd" clip-rule="evenodd" d="M17.7829 0C20.6819 0 23.0329 2.35103 23.0329 5.25003C23.0329 8.14904 20.6819 10.5001 17.7829 10.5001C14.8839 10.5001 12.5328 8.14904 12.5328 5.25003C12.5328 2.35103 14.8839 0 17.7829 0ZM16.6926 6.95528L15.4073 5.66888C15.1883 5.44977 15.1883 5.09247 15.4073 4.87341C15.6264 4.65439 15.9853 4.65576 16.2027 4.87341L17.1089 5.78028L19.3631 3.52607C19.5822 3.307 19.9395 3.307 20.1585 3.52607C20.3776 3.74509 20.3773 4.10274 20.1585 4.3215L17.506 6.97406C17.2872 7.19282 16.9295 7.19313 16.7105 6.97406C16.7044 6.96791 16.6984 6.96166 16.6926 6.95528Z" fill="#15BA4D"/>
</svg>
