<svg width="23" height="18" viewBox="0 0 23 18" fill="none" xmlns="http://www.w3.org/2000/svg">
    <path d="M8.14696 5.59238V6.55059V8.85371V11.651V14.0508C8.14696 14.4418 8.15771 14.835 8.14696 15.226V15.241L7.50243 14.5965C8.08896 14.5965 8.67548 14.5965 9.262 14.5965C10.1901 14.5965 11.1161 14.5965 12.0442 14.5965C12.2591 14.5965 12.4739 14.5965 12.6888 14.5965L12.0442 15.241C12.0485 14.777 12.1817 14.2936 12.4546 13.9133C12.7575 13.4922 13.1464 13.1914 13.6341 13.0088C14.5085 12.6822 15.5999 12.9723 16.1929 13.6941C16.5581 14.1367 16.7665 14.6609 16.7729 15.241L16.1284 14.5965C16.4292 14.5965 16.7278 14.5965 17.0286 14.5965C17.2284 14.5965 17.4261 14.5965 17.6259 14.5965C17.7333 14.5965 17.845 14.6029 17.9524 14.59C17.8944 14.5986 17.8386 14.6051 17.7806 14.6137C17.8278 14.6051 17.8708 14.5922 17.9159 14.575L17.7612 14.6395C17.787 14.6266 17.8106 14.6137 17.8343 14.6008C17.9288 14.5514 17.7075 14.7168 17.7999 14.6244C17.888 14.5363 17.744 14.7254 17.7698 14.6695C17.7827 14.6416 17.802 14.6137 17.8171 14.5836C17.7956 14.6352 17.7741 14.6867 17.7526 14.7383C17.7698 14.6932 17.7827 14.6502 17.7913 14.6029C17.7827 14.6609 17.7763 14.7168 17.7677 14.7748C17.7806 14.6717 17.7741 14.5664 17.7741 14.4633C17.7741 14.2463 17.7741 14.0271 17.7741 13.8102C17.7741 13.084 17.7741 12.3578 17.7741 11.6295C17.7741 10.7422 17.7741 9.85703 17.7741 8.96973C17.7741 8.20918 17.7741 7.44863 17.7741 6.68594C17.7741 6.325 17.7806 5.96191 17.7741 5.60098C17.7741 5.56875 17.772 5.53652 17.7677 5.5043C17.7763 5.5623 17.7827 5.61816 17.7913 5.67617C17.7827 5.62891 17.7698 5.58594 17.7526 5.54082C17.7741 5.59238 17.7956 5.64395 17.8171 5.69551C17.8042 5.66973 17.7913 5.64609 17.7784 5.62246C17.729 5.52793 17.8944 5.74922 17.802 5.65684C17.714 5.56875 17.903 5.7127 17.8472 5.68691C17.8192 5.67402 17.7913 5.65469 17.7612 5.63965C17.8128 5.66113 17.8643 5.68262 17.9159 5.7041C17.8708 5.68691 17.8278 5.67402 17.7806 5.66543C17.8386 5.67402 17.8944 5.68047 17.9524 5.68906C17.8429 5.67402 17.7311 5.68262 17.6216 5.68262H16.9147H14.5579H11.7091H9.24267C8.85165 5.68262 8.46278 5.67617 8.07177 5.68262C8.03954 5.68262 8.00517 5.68477 7.97294 5.68906C8.03095 5.68047 8.08681 5.67402 8.14482 5.66543C8.09755 5.67402 8.05458 5.68691 8.00946 5.7041C8.06103 5.68262 8.11259 5.66113 8.16415 5.63965C8.13837 5.65254 8.11474 5.66543 8.09111 5.67832C7.99657 5.72773 8.21786 5.5623 8.12548 5.65469C8.03739 5.74277 8.18134 5.55371 8.15556 5.60957C8.14267 5.6375 8.12333 5.66543 8.10829 5.69551C8.12978 5.64395 8.15126 5.59238 8.17275 5.54082C8.15556 5.58594 8.14267 5.62891 8.13407 5.67617C8.14267 5.61816 8.14911 5.5623 8.15771 5.5043C8.15126 5.53438 8.14911 5.56445 8.14696 5.59238C8.13837 5.92969 7.85693 6.25195 7.50243 6.23691C7.16083 6.22187 6.84931 5.95332 6.8579 5.59238C6.87509 4.92852 7.39286 4.40859 8.05673 4.39355C8.08681 4.39355 8.11689 4.39355 8.14911 4.39355C8.36396 4.39355 8.5788 4.39355 8.79364 4.39355C9.64657 4.39355 10.5017 4.39355 11.3546 4.39355C12.4224 4.39355 13.488 4.39355 14.5558 4.39355C15.4108 4.39355 16.2659 4.39355 17.121 4.39355C17.338 4.39355 17.5528 4.39355 17.7698 4.39355C17.802 4.39355 17.8321 4.39355 17.8643 4.39355C18.5218 4.40859 19.0267 4.91133 19.0632 5.56445C19.0696 5.69121 19.0632 5.81797 19.0632 5.94473V6.89219V9.80762V12.8928V14.6309C19.0632 14.7791 19.0503 14.9295 18.9987 15.0691C18.8183 15.5676 18.3671 15.8855 17.8364 15.8877C17.3938 15.8898 16.9513 15.8877 16.5087 15.8877H16.1263C15.7761 15.8877 15.4839 15.5934 15.4817 15.2432C15.4817 15.1637 15.4753 15.0842 15.4645 15.0047C15.4731 15.0627 15.4796 15.1186 15.4882 15.1766C15.4667 15.0326 15.4302 14.893 15.3743 14.7598C15.3958 14.8113 15.4173 14.8629 15.4388 14.9145C15.3958 14.8135 15.3464 14.7189 15.2862 14.6266C15.2712 14.6029 15.254 14.5814 15.239 14.5578C15.1981 14.4955 15.3442 14.6867 15.2798 14.6115C15.2433 14.5686 15.2067 14.5256 15.1659 14.4869C15.1294 14.4504 15.0907 14.416 15.052 14.3838C14.964 14.3064 15.1058 14.4182 15.1058 14.4246C15.1058 14.4139 15.0499 14.3838 15.037 14.3752C14.9425 14.3129 14.8415 14.2592 14.7384 14.2162C14.7899 14.2377 14.8415 14.2592 14.8931 14.2807C14.7577 14.227 14.6202 14.1883 14.4763 14.1668C14.5343 14.1754 14.5901 14.1818 14.6481 14.1904C14.4892 14.1689 14.3302 14.1689 14.1712 14.1904C14.2292 14.1818 14.2851 14.1754 14.3431 14.1668C14.1991 14.1883 14.0595 14.2248 13.9263 14.2807C13.9778 14.2592 14.0294 14.2377 14.0809 14.2162C13.98 14.2592 13.8854 14.3086 13.7931 14.3687C13.7694 14.3838 13.7479 14.401 13.7243 14.416C13.662 14.4568 13.8532 14.3107 13.7759 14.3752C13.7329 14.4117 13.6899 14.4482 13.6513 14.4891C13.6147 14.5256 13.5804 14.5643 13.5481 14.6029C13.4708 14.691 13.5825 14.5492 13.589 14.5492C13.5782 14.5492 13.5481 14.6051 13.5395 14.618C13.4772 14.7125 13.4235 14.8135 13.3806 14.9166C13.402 14.865 13.4235 14.8135 13.445 14.7619C13.3913 14.8973 13.3526 15.0348 13.3311 15.1787C13.3397 15.1207 13.3462 15.0648 13.3548 15.0068C13.344 15.0863 13.3397 15.1658 13.3376 15.2453C13.3354 15.5934 13.0454 15.8898 12.6931 15.8898H10.9335H8.15126H7.50673C7.15868 15.8898 6.8622 15.5955 6.8622 15.2453C6.8622 14.9252 6.8622 14.6072 6.8622 14.2871C6.8622 13.5201 6.8622 12.751 6.8622 11.984C6.8622 11.0516 6.8622 10.1191 6.8622 9.18672C6.8622 8.3875 6.8622 7.58613 6.8622 6.78691C6.8622 6.3959 6.85361 6.00273 6.8622 5.61172C6.8622 5.60742 6.8622 5.60098 6.8622 5.59668C6.8622 5.25937 7.15868 4.93711 7.50673 4.95215C7.85263 4.96504 8.14696 5.23145 8.14696 5.59238Z" fill="#FF0000"/>
    <path d="M1.28915 11.1182V12.39V14.3859C1.28915 14.5492 1.27626 14.7189 1.29345 14.8822C1.28485 14.8242 1.27841 14.7684 1.26982 14.7104C1.27626 14.749 1.287 14.7834 1.30204 14.8199C1.28056 14.7684 1.25907 14.7168 1.23759 14.6652C1.24618 14.6824 1.25478 14.6975 1.26337 14.7146C1.30634 14.8027 1.17099 14.6137 1.22255 14.6609C1.26337 14.6996 1.10224 14.5986 1.15595 14.6137C1.17528 14.618 1.20107 14.6395 1.21825 14.648L1.06357 14.5836C1.10009 14.5986 1.13447 14.6094 1.17314 14.6158C1.11513 14.6072 1.05927 14.6008 1.00126 14.5922C1.2247 14.6158 1.46103 14.5965 1.68446 14.5965C1.90575 14.5965 2.12919 14.5965 2.35048 14.5965L1.70595 15.241C1.6995 14.7812 1.8413 14.2893 2.10771 13.9111C2.41064 13.4836 2.8038 13.1785 3.29579 12.9937C4.1788 12.6629 5.26591 12.9637 5.86318 13.6898C6.22197 14.1281 6.44111 14.6674 6.43251 15.2389C6.21767 15.024 6.00282 14.8092 5.78798 14.5943C6.35732 14.5943 6.9288 14.5943 7.49814 14.5943L6.85361 15.2389C6.85361 14.9703 6.85361 14.7018 6.85361 14.4332C6.85361 13.7887 6.85361 13.1441 6.85361 12.4996C6.85361 11.7197 6.85361 10.9398 6.85361 10.1621C6.85361 9.4875 6.85361 8.81504 6.85361 8.14043C6.85361 7.81387 6.84286 7.48515 6.85361 7.16074C6.85361 7.15644 6.85361 7.15 6.85361 7.1457C7.06845 7.36055 7.28329 7.57539 7.49814 7.79023H4.61923C4.45595 7.79023 4.28837 7.78164 4.12509 7.79883C4.1831 7.79023 4.23896 7.78379 4.29696 7.77519C4.19599 7.79023 4.10146 7.81601 4.00907 7.85469C4.06064 7.8332 4.1122 7.81172 4.16376 7.79023C4.1079 7.81601 4.00048 7.85469 3.96181 7.90625C3.95536 7.91484 4.07568 7.80742 4.02626 7.85683C4.01122 7.87187 3.99189 7.88691 3.97685 7.90195C3.95751 7.92129 3.93818 7.94277 3.91884 7.96426C3.91025 7.97285 3.9038 7.98144 3.89521 7.99219C3.84364 8.05234 3.78993 8.11035 3.73837 8.17051C3.52997 8.40683 3.32372 8.64316 3.11532 8.87949C2.62333 9.43808 2.13349 9.99668 1.6415 10.5553C1.56845 10.6391 1.4954 10.7228 1.42236 10.8045C1.40517 10.8238 1.39013 10.841 1.37294 10.8603C1.3665 10.8668 1.3622 10.8754 1.35575 10.8797C1.30849 10.9291 1.41161 10.8152 1.40302 10.8174C1.39013 10.8217 1.3622 10.8775 1.35575 10.8904C1.32782 10.9355 1.30634 10.9828 1.28485 11.0301C1.30634 10.9785 1.32782 10.927 1.34931 10.8754C1.31493 10.9635 1.2913 11.0516 1.27626 11.1439C1.28486 11.0859 1.2913 11.0301 1.29989 10.9721C1.29345 11.0258 1.2913 11.0709 1.28915 11.1182C1.28271 11.4555 0.996964 11.7777 0.64462 11.7627C0.30087 11.7477 -0.00635624 11.4791 8.86917e-05 11.1182C0.00653458 10.6777 0.169816 10.291 0.455558 9.95801C0.481339 9.92578 0.509269 9.8957 0.537199 9.86562C0.702628 9.67871 0.86591 9.4918 1.03134 9.30488C1.51259 8.75703 1.99384 8.20918 2.47509 7.66348C2.63193 7.48515 2.78876 7.30683 2.9456 7.12851C3.27216 6.75683 3.70185 6.53984 4.19814 6.50762C4.36357 6.49687 4.53114 6.50547 4.69872 6.50547C5.04032 6.50547 5.38407 6.50547 5.72568 6.50547C6.3079 6.50547 6.89013 6.49902 7.47236 6.50547C7.4831 6.50547 7.49384 6.50547 7.50458 6.50547C7.85263 6.50547 8.14911 6.7998 8.14911 7.15V7.95566V9.88926V12.2268V14.2484C8.14911 14.575 8.15556 14.9016 8.14911 15.2281V15.2432C8.14911 15.5912 7.85478 15.8877 7.50458 15.8877H5.79443C5.45068 15.8877 5.1456 15.5934 5.14989 15.2432C5.15204 15.1594 5.1456 15.0734 5.13271 14.9896C5.1413 15.0477 5.14775 15.1035 5.15634 15.1615C5.13486 15.0176 5.09833 14.8779 5.04247 14.7447C5.06396 14.7963 5.08544 14.8478 5.10693 14.8994C5.06396 14.7984 5.01454 14.7039 4.95439 14.6115C4.93935 14.5879 4.92216 14.5664 4.90712 14.5428C4.8663 14.4805 5.01239 14.6717 4.94794 14.5943C4.91142 14.5514 4.87489 14.5084 4.83407 14.4697C4.79755 14.4332 4.75888 14.3988 4.72021 14.3666C4.63212 14.2893 4.77392 14.401 4.77392 14.4074C4.77392 14.3967 4.71806 14.3666 4.70517 14.358C4.61064 14.2957 4.50966 14.242 4.40654 14.199C4.4581 14.2205 4.50966 14.242 4.56122 14.2635C4.42587 14.2098 4.28837 14.1711 4.14443 14.1496C4.20243 14.1582 4.25829 14.1646 4.3163 14.1732C4.15732 14.1518 3.99833 14.1518 3.83935 14.1732C3.89736 14.1646 3.95321 14.1582 4.01122 14.1496C3.86728 14.1711 3.72763 14.2076 3.59443 14.2635C3.64599 14.242 3.69755 14.2205 3.74911 14.199C3.64814 14.242 3.55361 14.2914 3.46122 14.3516C3.43759 14.3666 3.41611 14.3838 3.39247 14.3988C3.33017 14.4396 3.52138 14.2936 3.44618 14.358C3.40321 14.3945 3.36025 14.4311 3.32157 14.4719C3.28505 14.5084 3.25068 14.5471 3.21845 14.5857C3.1411 14.6738 3.25282 14.532 3.25927 14.532C3.24853 14.532 3.21845 14.5879 3.20986 14.6008C3.14755 14.6953 3.09384 14.7963 3.05087 14.8994C3.07235 14.8478 3.09384 14.7963 3.11532 14.7447C3.06161 14.8801 3.02294 15.0176 3.00146 15.1615C3.01005 15.1035 3.0165 15.0477 3.02509 14.9896C3.01435 15.0734 3.0079 15.1572 3.0079 15.2432C3.0122 15.5912 2.70927 15.8877 2.36337 15.8877H1.19032C1.13661 15.8877 1.08075 15.8898 1.02704 15.8855C0.663956 15.8598 0.324503 15.6728 0.144034 15.3441C0.0323162 15.1422 0.0086832 14.9273 0.0086832 14.7039C0.0086832 13.808 0.0086832 12.9121 0.0086832 12.0162C0.0086832 11.7176 0.0086832 11.4168 0.0086832 11.1182C0.0086832 10.7809 0.305168 10.4586 0.653215 10.4736C0.994816 10.4887 1.28915 10.7572 1.28915 11.1182Z" fill="#FF0000"/>
    <path d="M2.99929 15.2281C3.00143 15.3033 3.00573 15.3764 3.01432 15.4494C3.00573 15.3914 2.99929 15.3356 2.99069 15.2775C3.01218 15.4301 3.05085 15.5783 3.111 15.7201C3.08952 15.6686 3.06804 15.617 3.04655 15.5654C3.08737 15.66 3.13464 15.7524 3.19265 15.8383C3.20768 15.8619 3.22487 15.8834 3.23991 15.907C3.30221 15.9994 3.13249 15.7803 3.20768 15.8641C3.24206 15.9027 3.27429 15.9414 3.31081 15.9779C3.34733 16.0145 3.38386 16.0488 3.42468 16.0832C3.4655 16.1176 3.54929 16.1563 3.38171 16.051C3.40104 16.0639 3.42038 16.0789 3.43972 16.0918C3.52995 16.152 3.62448 16.2035 3.72331 16.2465C3.67175 16.225 3.62018 16.2035 3.56862 16.182C3.71042 16.2422 3.85866 16.283 4.0112 16.3045C3.95319 16.2959 3.89733 16.2895 3.83932 16.2809C3.99831 16.3023 4.15514 16.3023 4.31413 16.2809C4.25612 16.2895 4.20026 16.2959 4.14225 16.3045C4.29479 16.283 4.44304 16.2422 4.58483 16.182C4.53327 16.2035 4.48171 16.225 4.43015 16.2465C4.52468 16.2057 4.61706 16.1563 4.703 16.0982C4.72663 16.0832 4.74811 16.0639 4.77175 16.051C4.61061 16.152 4.68581 16.1197 4.72878 16.0832C4.76745 16.051 4.80612 16.0145 4.84265 15.9779C4.87917 15.9414 4.9114 15.9027 4.94577 15.8641C5.01452 15.7846 4.85124 15.9973 4.91354 15.907C4.92643 15.8877 4.94147 15.8684 4.95436 15.849C5.01452 15.7588 5.06393 15.6643 5.1069 15.5633C5.08542 15.6149 5.06393 15.6664 5.04245 15.718C5.10046 15.574 5.14128 15.4279 5.16276 15.2754C5.15417 15.3334 5.14772 15.3893 5.13913 15.4473C5.15847 15.2947 5.15632 15.14 5.13698 14.9875C5.14558 15.0455 5.15202 15.1014 5.16061 15.1594C5.13913 15.0154 5.10261 14.8758 5.04675 14.7426C5.06823 14.7941 5.08972 14.8457 5.1112 14.8973C5.06823 14.7963 5.01882 14.7018 4.95866 14.6094C4.94362 14.5857 4.92643 14.5643 4.9114 14.5406C4.87058 14.4783 5.01667 14.6695 4.95222 14.5922C4.91569 14.5492 4.87917 14.5063 4.83835 14.4676C4.80182 14.4311 4.76315 14.3967 4.72448 14.3645C4.6364 14.2871 4.77819 14.3988 4.77819 14.4053C4.77819 14.3945 4.72233 14.3645 4.70944 14.3559C4.61491 14.2936 4.51393 14.2399 4.41081 14.1969C4.46237 14.2184 4.51393 14.2399 4.5655 14.2613C4.43014 14.2076 4.29265 14.169 4.1487 14.1475C4.20671 14.1561 4.26257 14.1625 4.32058 14.1711C4.16159 14.1496 4.00261 14.1496 3.84362 14.1711C3.90163 14.1625 3.95749 14.1561 4.0155 14.1475C3.87155 14.169 3.7319 14.2055 3.5987 14.2613C3.65026 14.2399 3.70182 14.2184 3.75339 14.1969C3.65241 14.2399 3.55788 14.2893 3.4655 14.3494C3.44186 14.3645 3.42038 14.3816 3.39675 14.3967C3.33444 14.4375 3.52565 14.2914 3.45046 14.3559C3.40749 14.3924 3.36452 14.4289 3.32585 14.4697C3.28932 14.5063 3.25495 14.5449 3.22272 14.5836C3.14538 14.6717 3.2571 14.5299 3.26354 14.5299C3.2528 14.5299 3.22272 14.5857 3.21413 14.5986C3.15183 14.6932 3.09811 14.7941 3.05515 14.8973C3.07663 14.8457 3.09811 14.7941 3.1196 14.7426C3.06589 14.8779 3.02722 15.0154 3.00573 15.1594C3.01433 15.1014 3.02077 15.0455 3.02936 14.9875C3.00573 15.0691 3.00143 15.1486 2.99929 15.2281C2.99714 15.5654 2.70495 15.8877 2.35475 15.8727C2.00886 15.8576 1.70808 15.5891 1.71022 15.2281C1.71452 14.7576 1.85202 14.2742 2.12917 13.8897C2.43425 13.4664 2.83386 13.1613 3.328 12.9873C4.20886 12.6736 5.28952 12.9744 5.87604 13.7049C6.2069 14.1152 6.39597 14.5815 6.43249 15.11C6.46472 15.5676 6.33796 16.0553 6.09948 16.4463C5.86315 16.8352 5.50651 17.1703 5.08972 17.3594C4.59987 17.5828 4.0778 17.643 3.54929 17.5334C3.06374 17.4324 2.58893 17.1445 2.27526 16.76C1.91647 16.3195 1.71667 15.8018 1.71022 15.2303C1.70593 14.893 2.011 14.5707 2.35475 14.5857C2.70925 14.6008 2.99499 14.8672 2.99929 15.2281Z" fill="#FF0000"/>
    <path d="M13.3354 15.2432C13.3354 15.3227 13.3419 15.4021 13.3526 15.4816C13.344 15.4236 13.3376 15.3678 13.329 15.3098C13.3505 15.4537 13.387 15.5934 13.4428 15.7266L13.3784 15.5719C13.4214 15.6728 13.4708 15.7674 13.5309 15.8598C13.546 15.8834 13.5632 15.9049 13.5782 15.9285C13.619 15.9908 13.4729 15.7996 13.5374 15.8769C13.5739 15.9199 13.6104 15.9629 13.6512 16.0016C13.6878 16.0381 13.7264 16.0725 13.7651 16.1047C13.8532 16.182 13.7114 16.0703 13.7114 16.0639C13.7114 16.0746 13.7673 16.1047 13.7801 16.1133C13.8747 16.1756 13.9757 16.2293 14.0788 16.2723L13.9241 16.2078C14.0594 16.2615 14.1969 16.3002 14.3409 16.3217C14.2829 16.3131 14.227 16.3066 14.169 16.298C14.328 16.3195 14.487 16.3195 14.646 16.298C14.588 16.3066 14.5321 16.3131 14.4741 16.3217C14.618 16.3002 14.7577 16.2637 14.8909 16.2078L14.7362 16.2723C14.8372 16.2293 14.9317 16.1799 15.0241 16.1197C15.0477 16.1047 15.0692 16.0875 15.0928 16.0725C15.1551 16.0316 14.9639 16.1777 15.0413 16.1133C15.0843 16.0768 15.1272 16.0402 15.1659 15.9994C15.2024 15.9629 15.2368 15.9242 15.269 15.8855C15.3464 15.7975 15.2346 15.9393 15.2282 15.9393C15.2389 15.9393 15.269 15.8834 15.2776 15.8705C15.3399 15.776 15.3936 15.675 15.4366 15.5719C15.4151 15.6234 15.3936 15.675 15.3721 15.7266C15.4259 15.5912 15.4645 15.4537 15.486 15.3098C15.4774 15.3678 15.471 15.4236 15.4624 15.4816C15.4839 15.3226 15.4839 15.1637 15.4624 15.0047C15.471 15.0627 15.4774 15.1185 15.486 15.1766C15.4645 15.0326 15.428 14.893 15.3721 14.7598C15.3936 14.8113 15.4151 14.8629 15.4366 14.9144C15.3936 14.8135 15.3442 14.7189 15.2841 14.6266C15.269 14.6029 15.2518 14.5814 15.2368 14.5578C15.196 14.4955 15.3421 14.6867 15.2776 14.6115C15.2411 14.5685 15.2046 14.5256 15.1637 14.4869C15.1272 14.4504 15.0885 14.416 15.0499 14.3838C14.9618 14.3064 15.1036 14.4182 15.1036 14.4246C15.1036 14.4139 15.0477 14.3838 15.0348 14.3752C14.9403 14.3129 14.8393 14.2592 14.7362 14.2162C14.7878 14.2377 14.8393 14.2592 14.8909 14.2807C14.7555 14.2269 14.618 14.1883 14.4741 14.1668C14.5321 14.1754 14.588 14.1818 14.646 14.1904C14.487 14.1689 14.328 14.1689 14.169 14.1904C14.227 14.1818 14.2829 14.1754 14.3409 14.1668C14.1969 14.1883 14.0573 14.2248 13.9241 14.2807C13.9757 14.2592 14.0272 14.2377 14.0788 14.2162C13.9778 14.2592 13.8833 14.3086 13.7909 14.3687C13.7673 14.3838 13.7458 14.401 13.7221 14.416C13.6598 14.4568 13.851 14.3107 13.7737 14.3752C13.7307 14.4117 13.6878 14.4482 13.6491 14.4891C13.6126 14.5256 13.5782 14.5643 13.546 14.6029C13.4686 14.691 13.5803 14.5492 13.5868 14.5492C13.576 14.5492 13.546 14.6051 13.5374 14.618C13.4751 14.7125 13.4214 14.8135 13.3784 14.9166C13.3999 14.865 13.4214 14.8135 13.4428 14.7619C13.3891 14.8973 13.3505 15.0348 13.329 15.1787C13.3376 15.1207 13.344 15.0648 13.3526 15.0068C13.3419 15.0842 13.3354 15.1637 13.3354 15.2432C13.3333 15.5805 13.0411 15.9027 12.6909 15.8877C12.345 15.8727 12.0442 15.6041 12.0464 15.2432C12.0507 14.7791 12.1839 14.2957 12.4567 13.9154C12.7596 13.4943 13.1485 13.1935 13.6362 13.0109C14.5106 12.6844 15.602 12.9744 16.195 13.6963C16.5302 14.1045 16.7214 14.5643 16.7686 15.0928C16.8094 15.5568 16.6827 16.0531 16.4421 16.4506C16.21 16.8352 15.8555 17.1789 15.4452 17.3637C14.9532 17.585 14.4462 17.6516 13.9155 17.5506C12.8327 17.3443 12.0571 16.3238 12.0485 15.241C12.0464 14.9037 12.3471 14.5814 12.693 14.5965C13.0411 14.6137 13.3311 14.8822 13.3354 15.2432Z" fill="#FF0000"/>
    <path d="M0.773528 10.0719C1.53622 10.0719 2.29677 10.0719 3.05947 10.0719C4.26474 10.0719 5.47001 10.0719 6.67314 10.0719C6.94814 10.0719 7.22529 10.0719 7.50029 10.0719C7.83759 10.0719 8.15986 10.3684 8.14482 10.7164C8.12978 11.0666 7.86122 11.3609 7.50029 11.3609H5.21435H1.60068H0.773528C0.436224 11.3609 0.113957 11.0644 0.128997 10.7164C0.146184 10.3684 0.412591 10.0719 0.773528 10.0719Z" fill="#FF0000"/>
    <circle cx="18.0328" cy="6.5" r="3.5" fill="white"/>
    <g clip-path="url(#clip0_1_516)">
        <path fill-rule="evenodd" clip-rule="evenodd" d="M17 0.749939C19.899 0.749939 22.25 3.10097 22.25 5.99997C22.25 8.89897 19.899 11.25 17 11.25C14.101 11.25 11.7499 8.89897 11.7499 5.99997C11.7499 3.10097 14.101 0.749939 17 0.749939ZM16.4375 6.45174V3.74962C16.4375 3.43984 16.6902 3.18716 17 3.18716C17.3097 3.18716 17.5624 3.44219 17.5624 3.74962V6.45174C17.5624 6.75917 17.3097 7.0142 17 7.0142C16.6902 7.0142 16.4375 6.76151 16.4375 6.45174ZM16.9975 7.61745C17.3496 7.61745 17.6351 7.90295 17.6351 8.25493C17.6351 8.60696 17.3496 8.89246 16.9975 8.89246C16.6456 8.89246 16.3601 8.60696 16.3601 8.25493C16.3601 7.90295 16.6456 7.61745 16.9975 7.61745Z" fill="#FF0000"/>
    </g>
    <defs>
        <clipPath id="clip0_1_516">
            <rect width="12" height="12" fill="white" transform="translate(11)"/>
        </clipPath>
    </defs>
</svg>
