<svg width="25" height="21" viewBox="0 0 25 21" fill="none" xmlns="http://www.w3.org/2000/svg">
    <path fill-rule="evenodd" clip-rule="evenodd" d="M1.16237 13.5696C1.16235 13.7681 1.16232 13.9666 1.16229 14.185C1.16221 14.8129 1.16211 15.6047 1.16211 17.0318H2.89333H3.4704C3.4704 18.9362 5.0285 20.4943 6.93285 20.4943C8.83719 20.4943 10.3953 18.9362 10.3953 17.0318H15.0119C15.0119 18.9362 16.57 20.4943 18.4743 20.4943C20.3787 20.4943 21.9368 18.9362 21.9368 17.0318H23.668C23.9854 17.0318 24.2451 16.7721 24.2451 16.4548V15.3006C24.2451 14.9832 23.9854 14.7235 23.668 14.7235H23.0909V10.8283C23.0909 10.3666 22.9178 9.93383 22.5715 9.61643L18.9937 6.00972C18.6763 5.69233 18.2435 5.49036 17.7818 5.49036H15.0117L13.8577 6.6445L13.8575 10.1069H13.8574V12.5696C13.8574 13.1218 13.4096 13.5696 12.8574 13.5696H3.47002H1.16237ZM5.20163 17.0318C5.20163 17.984 5.98067 18.7631 6.93285 18.7631C7.88502 18.7631 8.66407 17.984 8.66407 17.0318C8.66407 16.0797 7.88502 15.3006 6.93285 15.3006C5.98067 15.3006 5.20163 16.0797 5.20163 17.0318ZM16.7431 17.0318C16.7431 17.984 17.5222 18.7631 18.4743 18.7631C19.4265 18.7631 20.2055 17.984 20.2055 17.0318C20.2055 16.0797 19.4265 15.3006 18.4743 15.3006C17.5222 15.3006 16.7431 16.0797 16.7431 17.0318ZM16.166 11.2611H21.3597V10.8283L17.753 7.22158H16.166V11.2611Z" fill="#15BA4D"/>
    <path d="M6.73036 13.331C6.8437 13.2838 6.91766 13.1734 6.91766 13.051L6.91766 9.72992L12.1862 9.72992C12.3535 9.72992 12.4893 9.59414 12.4893 9.42684L12.4893 7.48611C12.4893 7.31881 12.1862 7.18303 12.1862 7.18303L6.91763 4.27457L6.91763 0.940776C6.91763 0.818344 6.84367 0.708016 6.73092 0.660736C6.61758 0.614054 6.48725 0.639512 6.40056 0.7262L0.334249 6.77251C0.27728 6.82948 0.245145 6.90648 0.245145 6.98709C0.245145 7.0677 0.27728 7.1447 0.333652 7.20167L6.39997 13.2656C6.48668 13.3523 6.61699 13.3783 6.73036 13.331Z" fill="#15BA4D"/>
</svg>
