<svg width="18" height="18" viewBox="0 0 18 18" fill="none" xmlns="http://www.w3.org/2000/svg">
    <path d="M15.4672 6.93923C15.3283 6.8331 15.2197 6.69224 15.1525 6.53083C15.0853 6.36943 15.0618 6.19317 15.0844 6.01979C15.2686 4.57809 15.1532 3.7368 14.708 3.29196C14.2621 2.84675 13.4212 2.7299 11.9802 2.9163C11.8067 2.93818 11.6305 2.91426 11.4691 2.84691C11.3077 2.77956 11.1668 2.67112 11.0604 2.53239C10.2323 1.4728 9.59645 1 8.99855 1C8.40136 1 7.76546 1.47209 6.93743 2.53132C6.83061 2.6696 6.68962 2.77768 6.52834 2.84493C6.36707 2.91218 6.19106 2.93628 6.01764 2.91486C4.1716 2.67577 3.58947 2.98978 3.28981 3.28981C2.84532 3.73394 2.7299 4.57524 2.91414 6.018C2.93664 6.19143 2.91311 6.36772 2.84591 6.52917C2.77871 6.69062 2.67022 6.83154 2.53132 6.9378C1.47244 7.76441 1 8.39993 1 8.99855C1 9.59752 1.47244 10.2334 2.53275 11.0607C2.67169 11.1669 2.78022 11.3077 2.84743 11.4691C2.91463 11.6305 2.93814 11.8068 2.91558 11.9802C2.73131 13.4219 2.84675 14.2632 3.29196 14.708C3.73715 15.1525 4.57739 15.2693 6.01979 15.0837C6.19326 15.0621 6.36935 15.0862 6.53067 15.1535C6.69198 15.2208 6.83293 15.3291 6.93959 15.4676C7.76762 16.5272 8.40351 17 9.00141 17C9.5986 17 10.2345 16.5279 11.0625 15.4687C11.1691 15.3301 11.31 15.2218 11.4714 15.1545C11.6327 15.0873 11.8089 15.0633 11.9823 15.0851C13.8276 15.3231 14.4098 15.0103 14.7102 14.7102C15.1546 14.2661 15.2701 13.4248 15.0858 11.982C15.0633 11.8086 15.0869 11.6323 15.1541 11.4708C15.2212 11.3094 15.3297 11.1685 15.4686 11.0622C16.5275 10.2356 17 9.60007 17 9.00145C17 8.40241 16.5275 7.76654 15.4672 6.93923Z" fill="#007AFF"/>
    <path d="M7.54616 11.2978L6.21494 9.96634C6.04112 9.79249 5.94347 9.5567 5.94348 9.31086C5.94349 9.06501 6.04116 8.82924 6.215 8.6554C6.38882 8.48157 6.62473 8.38375 6.87057 8.38373C7.1164 8.38371 7.35217 8.48133 7.52603 8.65513L8.16657 9.29545L10.4685 6.7375C10.5499 6.647 10.6484 6.57343 10.7583 6.52099C10.8681 6.46855 10.9873 6.43827 11.1088 6.43187C11.2304 6.42547 11.3521 6.44308 11.4668 6.4837C11.5816 6.52432 11.6873 6.58715 11.7777 6.6686C11.9605 6.83307 12.0704 7.06338 12.0833 7.30887C12.0962 7.55437 12.0111 7.79494 11.8467 7.97768L8.89094 11.2624C8.80675 11.356 8.70438 11.4314 8.59009 11.4841C8.4758 11.5368 8.35197 11.5657 8.22614 11.569C8.10032 11.5724 7.97514 11.55 7.85824 11.5034C7.74133 11.4567 7.63515 11.3868 7.54616 11.2978Z" fill="#F2F2F2"/>
</svg>
