<svg width="24" height="24" viewBox="0 0 24 24" fill="none" xmlns="http://www.w3.org/2000/svg">
    <g clip-path="url(#clip0_3149_2476)">
        <path d="M12 24C5.37258 24 0 18.6274 0 12C0 5.37258 5.37258 0 12 0C18.6274 0 24 5.37258 24 12C24 18.6274 18.6274 24 12 24Z" fill="#FF2147"/>
        <path d="M11.9999 14.4C12.4344 14.4 12.8521 14.2318 13.1655 13.9307C13.4788 13.6296 13.6635 13.2189 13.6808 12.7847L13.9025 7.18594C13.9114 6.95963 13.8745 6.73385 13.7941 6.52215C13.7136 6.31044 13.5912 6.11716 13.4342 5.95389C13.2773 5.79062 13.089 5.66072 12.8806 5.57199C12.6722 5.48326 12.4481 5.43751 12.2216 5.4375H11.7781C11.5517 5.43751 11.3275 5.48326 11.1191 5.57199C10.9107 5.66072 10.7224 5.79062 10.5655 5.95389C10.4085 6.11716 10.2861 6.31044 10.2057 6.52215C10.1252 6.73385 10.0883 6.95963 10.0972 7.18594L10.3189 12.7847C10.3362 13.2189 10.5209 13.6296 10.8342 13.9307C11.1476 14.2318 11.5653 14.4 11.9999 14.4Z" fill="white"/>
        <path d="M10.3201 16.8829C10.3201 15.9553 11.0721 15.2034 11.9997 15.2034C12.9272 15.2034 13.6792 15.9553 13.6792 16.8829C13.6792 17.8105 12.9272 18.5624 11.9997 18.5624C11.0721 18.5624 10.3201 17.8105 10.3201 16.8829Z" fill="white"/>
    </g>
    <defs>
        <clipPath id="clip0_3149_2476">
            <rect width="24" height="24" fill="white" transform="matrix(-1 0 0 1 24 0)"/>
        </clipPath>
    </defs>
</svg>
