<svg width="100" height="100" viewBox="0 0 100 100" fill="none" xmlns="http://www.w3.org/2000/svg">
    <rect x="7.14286" y="7.14286" width="85.7143" height="85.7143" rx="42.8571" stroke="#E20000" stroke-opacity="0.25" stroke-width="14.2857"/>
    <path d="M74.8577 59.0268L56.715 27.9567C53.7516 22.824 46.2578 22.824 43.3051 27.9567L25.1517 59.0268C22.1884 64.1594 25.8766 70.5357 31.8567 70.5357H68.0888C74.0689 70.5357 77.8211 64.0962 74.8577 59.0268ZM49.9994 63.643C48.4218 63.643 47.1106 62.3467 47.1106 60.7868C47.1106 59.227 48.4218 57.9307 49.9994 57.9307C51.577 57.9307 52.8881 59.227 52.8242 60.8606C52.8988 62.3467 51.513 63.643 49.9994 63.643ZM52.6323 45.178C52.5044 47.3913 52.3658 49.594 52.2379 51.8073C52.1739 52.524 52.1739 53.1774 52.1739 53.8835C52.11 55.0534 51.1826 55.9598 49.9994 55.9598C48.8162 55.9598 47.8994 55.1166 47.8248 53.9468C47.6329 50.5004 47.4304 47.1173 47.2385 43.6709C47.1746 42.7645 47.1106 41.8476 47.036 40.9412C47.036 39.4446 47.8888 38.2115 49.2745 37.8215C50.6603 37.4948 52.0354 38.1483 52.6323 39.4446C52.8348 39.8978 52.8988 40.351 52.8988 40.878C52.8348 42.3218 52.6963 43.7552 52.6323 45.178Z" fill="#FF0000"/>
</svg>
